<?xml version="1.0" encoding="UTF-8" standalone="no"?>
<!DOCTYPE svg PUBLIC "-//W3C//DTD SVG 1.1//EN"
 "http://www.w3.org/Graphics/SVG/1.1/DTD/svg11.dtd">
<!-- Generated by graphviz
 -->
<!-- Title: adaptive_flow Pages: 1 -->
<svg width="496pt" height="601pt"
 viewBox="0.00 0.00 495.75 600.60" xmlns="http://www.w3.org/2000/svg" xmlns:xlink="http://www.w3.org/1999/xlink">
<g id="graph0" class="graph" transform="scale(1 1) rotate(0) translate(4 596.6)">
<title>adaptive_flow</title>
<polygon fill="white" stroke="none" points="-4,4 -4,-596.6 491.75,-596.6 491.75,4 -4,4"/>
<!-- start_adaptive_flow -->
<g id="node1" class="node">
<title>start_adaptive_flow</title>
<polygon fill="palegreen" stroke="black" points="405.12,-592.6 262.38,-592.6 262.38,-556.6 405.12,-556.6 405.12,-592.6"/>
<text text-anchor="middle" x="333.75" y="-570.3" font-family="Helvetica,sans-Serif" font-size="14.00">start_adaptive_flow</text>
</g>
<!-- classifier -->
<g id="node2" class="node">
<title>classifier</title>
<polygon fill="lightblue" stroke="black" points="369.88,-519.6 297.62,-519.6 297.62,-483.6 369.88,-483.6 369.88,-519.6"/>
<text text-anchor="middle" x="333.75" y="-497.3" font-family="Helvetica,sans-Serif" font-size="14.00">classifier</text>
</g>
<!-- start_adaptive_flow&#45;&gt;classifier -->
<g id="edge1" class="edge">
<title>start_adaptive_flow&#45;&gt;classifier</title>
<path fill="none" stroke="black" d="M333.75,-556.41C333.75,-548.83 333.75,-539.7 333.75,-531.14"/>
<polygon fill="black" stroke="black" points="337.25,-531.14 333.75,-521.14 330.25,-531.14 337.25,-531.14"/>
</g>
<!-- router_adaptive_flow_line_16_if_2 -->
<g id="node7" class="node">
<title>router_adaptive_flow_line_16_if_2</title>
<polygon fill="wheat" stroke="black" points="449.75,-446.6 217.75,-446.6 217.75,-410.6 449.75,-410.6 449.75,-446.6"/>
<text text-anchor="middle" x="333.75" y="-424.3" font-family="Helvetica,sans-Serif" font-size="14.00">router_adaptive_flow_line_16_if_2</text>
</g>
<!-- classifier&#45;&gt;router_adaptive_flow_line_16_if_2 -->
<g id="edge2" class="edge">
<title>classifier&#45;&gt;router_adaptive_flow_line_16_if_2</title>
<path fill="none" stroke="black" d="M333.75,-483.41C333.75,-475.83 333.75,-466.7 333.75,-458.14"/>
<polygon fill="black" stroke="black" points="337.25,-458.14 333.75,-448.14 330.25,-458.14 337.25,-458.14"/>
</g>
<!-- deep_analyzer -->
<g id="node3" class="node">
<title>deep_analyzer</title>
<polygon fill="lightblue" stroke="black" points="107.5,-248.6 0,-248.6 0,-212.6 107.5,-212.6 107.5,-248.6"/>
<text text-anchor="middle" x="53.75" y="-226.3" font-family="Helvetica,sans-Serif" font-size="14.00">deep_analyzer</text>
</g>
<!-- fanin_adaptive_flow_line_17 -->
<g id="node4" class="node">
<title>fanin_adaptive_flow_line_17</title>
<polygon fill="lightblue" stroke="black" points="272.38,-175.6 77.12,-175.6 77.12,-139.6 272.38,-139.6 272.38,-175.6"/>
<text text-anchor="middle" x="174.75" y="-153.3" font-family="Helvetica,sans-Serif" font-size="14.00">fanin_adaptive_flow_line_17</text>
</g>
<!-- deep_analyzer&#45;&gt;fanin_adaptive_flow_line_17 -->
<g id="edge7" class="edge">
<title>deep_analyzer&#45;&gt;fanin_adaptive_flow_line_17</title>
<path fill="none" stroke="black" d="M83.35,-212.23C99.02,-203.03 118.48,-191.62 135.41,-181.68"/>
<polygon fill="black" stroke="black" points="136.88,-184.88 143.73,-176.8 133.33,-178.84 136.88,-184.88"/>
</g>
<!-- formatter -->
<g id="node6" class="node">
<title>formatter</title>
<polygon fill="lightblue" stroke="black" points="369.5,-102.6 292,-102.6 292,-66.6 369.5,-66.6 369.5,-102.6"/>
<text text-anchor="middle" x="330.75" y="-80.3" font-family="Helvetica,sans-Serif" font-size="14.00">formatter</text>
</g>
<!-- fanin_adaptive_flow_line_17&#45;&gt;formatter -->
<g id="edge12" class="edge">
<title>fanin_adaptive_flow_line_17&#45;&gt;formatter</title>
<path fill="none" stroke="black" d="M212.91,-139.23C233.78,-129.73 259.85,-117.87 282.16,-107.71"/>
<polygon fill="black" stroke="black" points="283.41,-110.99 291.06,-103.66 280.51,-104.62 283.41,-110.99"/>
</g>
<!-- fast_analyzer -->
<g id="node5" class="node">
<title>fast_analyzer</title>
<polygon fill="lightblue" stroke="black" points="302.75,-248.6 202.75,-248.6 202.75,-212.6 302.75,-212.6 302.75,-248.6"/>
<text text-anchor="middle" x="252.75" y="-226.3" font-family="Helvetica,sans-Serif" font-size="14.00">fast_analyzer</text>
</g>
<!-- fast_analyzer&#45;&gt;fanin_adaptive_flow_line_17 -->
<g id="edge5" class="edge">
<title>fast_analyzer&#45;&gt;fanin_adaptive_flow_line_17</title>
<path fill="none" stroke="black" d="M233.87,-212.41C224.36,-203.76 212.65,-193.1 202.17,-183.56"/>
<polygon fill="black" stroke="black" points="204.6,-181.04 194.85,-176.89 199.89,-186.21 204.6,-181.04"/>
</g>
<!-- __end__ -->
<g id="node10" class="node">
<title>__end__</title>
<ellipse fill="black" stroke="black" cx="330.75" cy="-14.8" rx="10.8" ry="10.8"/>
<ellipse fill="none" stroke="black" cx="330.75" cy="-14.8" rx="14.8" ry="14.8"/>
</g>
<!-- formatter&#45;&gt;__end__ -->
<g id="edge13" class="edge">
<title>formatter&#45;&gt;__end__</title>
<path fill="none" stroke="black" d="M330.75,-66.14C330.75,-58.55 330.75,-49.5 330.75,-41.19"/>
<polygon fill="black" stroke="black" points="334.25,-41.3 330.75,-31.3 327.25,-41.3 334.25,-41.3"/>
</g>
<!-- router_adaptive_flow_line_17_fanout_1 -->
<g id="node8" class="node">
<title>router_adaptive_flow_line_17_fanout_1</title>
<polygon fill="wheat" stroke="black" points="384.12,-356.6 121.38,-356.6 121.38,-320.6 384.12,-320.6 384.12,-356.6"/>
<text text-anchor="middle" x="252.75" y="-334.3" font-family="Helvetica,sans-Serif" font-size="14.00">router_adaptive_flow_line_17_fanout_1</text>
</g>
<!-- router_adaptive_flow_line_16_if_2&#45;&gt;router_adaptive_flow_line_17_fanout_1 -->
<g id="edge8" class="edge">
<title>router_adaptive_flow_line_16_if_2&#45;&gt;router_adaptive_flow_line_17_fanout_1</title>
<path fill="none" stroke="#2e8b57" d="M317.75,-410.21C305.88,-397.32 289.51,-379.53 276.17,-365.04"/>
<polygon fill="#2e8b57" stroke="#2e8b57" points="279.09,-363.05 269.74,-358.06 273.94,-367.79 279.09,-363.05"/>
<text text-anchor="middle" x="337.26" y="-379.3" font-family="Times,serif" font-size="14.00" fill="#2e8b57">p[&#39;parallel&#39;]</text>
</g>
<!-- sequential_analyzer -->
<g id="node9" class="node">
<title>sequential_analyzer</title>
<polygon fill="lightblue" stroke="black" points="487.75,-302.6 345.75,-302.6 345.75,-266.6 487.75,-266.6 487.75,-302.6"/>
<text text-anchor="middle" x="416.75" y="-280.3" font-family="Helvetica,sans-Serif" font-size="14.00">sequential_analyzer</text>
</g>
<!-- router_adaptive_flow_line_16_if_2&#45;&gt;sequential_analyzer -->
<g id="edge10" class="edge">
<title>router_adaptive_flow_line_16_if_2&#45;&gt;sequential_analyzer</title>
<path fill="none" stroke="#d35400" d="M359.96,-410.29C366.37,-405.16 372.81,-399.14 377.75,-392.6 395.41,-369.22 405.69,-337.06 411.22,-314.11"/>
<polygon fill="#d35400" stroke="#d35400" points="414.6,-315.05 413.36,-304.53 407.76,-313.52 414.6,-315.05"/>
<text text-anchor="middle" x="401.2" y="-379.3" font-family="Times,serif" font-size="14.00" fill="#d35400">else</text>
</g>
<!-- router_adaptive_flow_line_17_fanout_1&#45;&gt;deep_analyzer -->
<g id="edge6" class="edge">
<title>router_adaptive_flow_line_17_fanout_1&#45;&gt;deep_analyzer</title>
<path fill="none" stroke="black" d="M170.82,-320.19C156.65,-315.54 142.41,-309.75 129.75,-302.6 109.12,-290.94 89.67,-272.58 75.61,-257.45"/>
<polygon fill="black" stroke="black" points="78.29,-255.2 69,-250.11 73.09,-259.88 78.29,-255.2"/>
</g>
<!-- router_adaptive_flow_line_17_fanout_1&#45;&gt;fanin_adaptive_flow_line_17 -->
<g id="edge3" class="edge">
<title>router_adaptive_flow_line_17_fanout_1&#45;&gt;fanin_adaptive_flow_line_17</title>
<path fill="none" stroke="#6c35ea" d="M221.82,-320.22C197.92,-304.86 166.62,-280.02 152.5,-248.6 143.5,-228.57 150.41,-204.32 158.84,-186.04"/>
<polygon fill="#6c35ea" stroke="#6c35ea" points="161.95,-187.64 163.32,-177.14 155.7,-184.5 161.95,-187.64"/>
<text text-anchor="middle" x="173.12" y="-226.3" font-family="Times,serif" font-size="14.00" fill="#6c35ea">fanout</text>
</g>
<!-- router_adaptive_flow_line_17_fanout_1&#45;&gt;fast_analyzer -->
<g id="edge4" class="edge">
<title>router_adaptive_flow_line_17_fanout_1&#45;&gt;fast_analyzer</title>
<path fill="none" stroke="black" d="M252.75,-320.57C252.75,-304.36 252.75,-279.66 252.75,-260.39"/>
<polygon fill="black" stroke="black" points="256.25,-260.45 252.75,-250.45 249.25,-260.45 256.25,-260.45"/>
</g>
<!-- router_adaptive_flow_line_17_fanout_1&#45;&gt;formatter -->
<g id="edge9" class="edge">
<title>router_adaptive_flow_line_17_fanout_1&#45;&gt;formatter</title>
<path fill="none" stroke="black" d="M267.91,-320.23C281.83,-303.21 301.75,-275.93 311.75,-248.6 328.23,-203.56 331.25,-147.28 331.39,-114.01"/>
<polygon fill="black" stroke="black" points="334.89,-114.35 331.34,-104.37 327.89,-114.39 334.89,-114.35"/>
</g>
<!-- sequential_analyzer&#45;&gt;formatter -->
<g id="edge11" class="edge">
<title>sequential_analyzer&#45;&gt;formatter</title>
<path fill="none" stroke="black" d="M409.27,-266.38C394.37,-232.07 360.88,-154.96 342.83,-113.4"/>
<polygon fill="black" stroke="black" points="346.07,-112.09 338.88,-104.31 339.65,-114.88 346.07,-112.09"/>
</g>
</g>
</svg>
