<?xml version="1.0" encoding="UTF-8" standalone="no"?>
<!DOCTYPE svg PUBLIC "-//W3C//DTD SVG 1.1//EN"
 "http://www.w3.org/Graphics/SVG/1.1/DTD/svg11.dtd">
<!-- Generated by graphviz
 -->
<!-- Title: routing_classifier Pages: 1 -->
<svg width="698pt" height="449pt"
 viewBox="0.00 0.00 698.00 449.00" xmlns="http://www.w3.org/2000/svg" xmlns:xlink="http://www.w3.org/1999/xlink">
<g id="graph0" class="graph" transform="scale(1 1) rotate(0) translate(4 444.75)">
<title>routing_classifier</title>
<polygon fill="white" stroke="none" points="-4,4 -4,-444.75 694,-444.75 694,4 -4,4"/>
<!-- account_agent -->
<g id="node1" class="node">
<title>account_agent</title>
<polygon fill="lightblue" stroke="black" points="289.88,-36 185.38,-36 185.38,0 289.88,0 289.88,-36"/>
<text xml:space="preserve" text-anchor="middle" x="237.62" y="-12.2" font-family="Helvetica,sans-Serif" font-size="14.00">account_agent</text>
</g>
<!-- billing_agent -->
<g id="node2" class="node">
<title>billing_agent</title>
<polygon fill="lightblue" stroke="black" points="115.5,-208.5 23.75,-208.5 23.75,-172.5 115.5,-172.5 115.5,-208.5"/>
<text xml:space="preserve" text-anchor="middle" x="69.62" y="-184.7" font-family="Helvetica,sans-Serif" font-size="14.00">billing_agent</text>
</g>
<!-- format_reply -->
<g id="node5" class="node">
<title>format_reply</title>
<polygon fill="lightblue" stroke="black" points="119.5,-122.25 27.75,-122.25 27.75,-86.25 119.5,-86.25 119.5,-122.25"/>
<text xml:space="preserve" text-anchor="middle" x="73.62" y="-98.45" font-family="Helvetica,sans-Serif" font-size="14.00">format_reply</text>
</g>
<!-- billing_agent&#45;&gt;format_reply -->
<g id="edge8" class="edge">
<title>billing_agent&#45;&gt;format_reply</title>
<path fill="none" stroke="black" d="M70.45,-172.04C70.97,-161.09 71.66,-146.69 72.26,-134.07"/>
<polygon fill="black" stroke="black" points="75.75,-134.35 72.73,-124.2 68.76,-134.02 75.75,-134.35"/>
</g>
<!-- classifier -->
<g id="node3" class="node">
<title>classifier</title>
<polygon fill="lightblue" stroke="black" points="195.88,-367.75 127.38,-367.75 127.38,-331.75 195.88,-331.75 195.88,-367.75"/>
<text xml:space="preserve" text-anchor="middle" x="161.62" y="-343.95" font-family="Helvetica,sans-Serif" font-size="14.00">classifier</text>
</g>
<!-- router_routing_classifier_line_47_if_3 -->
<g id="node7" class="node">
<title>router_routing_classifier_line_47_if_3</title>
<polygon fill="wheat" stroke="black" points="281.75,-294.75 41.5,-294.75 41.5,-258.75 281.75,-258.75 281.75,-294.75"/>
<text xml:space="preserve" text-anchor="middle" x="161.62" y="-270.95" font-family="Helvetica,sans-Serif" font-size="14.00">router_routing_classifier_line_47_if_3</text>
</g>
<!-- classifier&#45;&gt;router_routing_classifier_line_47_if_3 -->
<g id="edge2" class="edge">
<title>classifier&#45;&gt;router_routing_classifier_line_47_if_3</title>
<path fill="none" stroke="black" d="M161.62,-331.56C161.62,-323.98 161.62,-314.85 161.62,-306.29"/>
<polygon fill="black" stroke="black" points="165.13,-306.29 161.63,-296.29 158.13,-306.29 165.13,-306.29"/>
</g>
<!-- end_routing_classifier -->
<g id="node4" class="node">
<title>end_routing_classifier</title>
<polygon fill="palegreen" stroke="black" points="147.25,-36 0,-36 0,0 147.25,0 147.25,-36"/>
<text xml:space="preserve" text-anchor="middle" x="73.62" y="-12.2" font-family="Helvetica,sans-Serif" font-size="14.00">end_routing_classifier</text>
</g>
<!-- format_reply&#45;&gt;end_routing_classifier -->
<g id="edge11" class="edge">
<title>format_reply&#45;&gt;end_routing_classifier</title>
<path fill="none" stroke="black" d="M73.62,-85.79C73.62,-74.84 73.62,-60.44 73.62,-47.82"/>
<polygon fill="black" stroke="black" points="77.13,-47.95 73.63,-37.95 70.13,-47.95 77.13,-47.95"/>
</g>
<!-- general_agent -->
<g id="node6" class="node">
<title>general_agent</title>
<polygon fill="lightblue" stroke="black" points="496.75,-36 394.5,-36 394.5,0 496.75,0 496.75,-36"/>
<text xml:space="preserve" text-anchor="middle" x="445.62" y="-12.2" font-family="Helvetica,sans-Serif" font-size="14.00">general_agent</text>
</g>
<!-- router_routing_classifier_line_47_if_3&#45;&gt;billing_agent -->
<g id="edge7" class="edge">
<title>router_routing_classifier_line_47_if_3&#45;&gt;billing_agent</title>
<path fill="none" stroke="black" d="M84.08,-258.49C76.39,-253.9 69.53,-248.09 64.38,-240.75 60.16,-234.75 59.33,-227.28 60.11,-219.98"/>
<polygon fill="black" stroke="black" points="63.5,-220.88 62.08,-210.38 56.64,-219.47 63.5,-220.88"/>
<text xml:space="preserve" text-anchor="middle" x="151" y="-227.45" font-family="Times,serif" font-size="14.00">p.get(&#39;category&#39;) == &#39;billing&#39;</text>
</g>
<!-- router_routing_classifier_line_49_if_2 -->
<g id="node8" class="node">
<title>router_routing_classifier_line_49_if_2</title>
<polygon fill="wheat" stroke="black" points="378.75,-208.5 138.5,-208.5 138.5,-172.5 378.75,-172.5 378.75,-208.5"/>
<text xml:space="preserve" text-anchor="middle" x="258.62" y="-184.7" font-family="Helvetica,sans-Serif" font-size="14.00">router_routing_classifier_line_49_if_2</text>
</g>
<!-- router_routing_classifier_line_47_if_3&#45;&gt;router_routing_classifier_line_49_if_2 -->
<g id="edge9" class="edge">
<title>router_routing_classifier_line_47_if_3&#45;&gt;router_routing_classifier_line_49_if_2</title>
<path fill="none" stroke="black" d="M213.25,-258.31C222.15,-253.62 230.74,-247.83 237.62,-240.75 243.37,-234.84 247.66,-227.11 250.8,-219.54"/>
<polygon fill="black" stroke="black" points="254.07,-220.8 254.13,-210.2 247.47,-218.45 254.07,-220.8"/>
<text xml:space="preserve" text-anchor="middle" x="352.57" y="-227.45" font-family="Times,serif" font-size="14.00">not (p.get(&#39;category&#39;) == &#39;billing&#39;)</text>
</g>
<!-- router_routing_classifier_line_49_if_2&#45;&gt;format_reply -->
<g id="edge10" class="edge">
<title>router_routing_classifier_line_49_if_2&#45;&gt;format_reply</title>
<path fill="none" stroke="black" d="M220.29,-172.04C191.89,-159.11 152.97,-141.38 122.36,-127.44"/>
<polygon fill="black" stroke="black" points="123.84,-124.27 113.29,-123.31 120.94,-130.64 123.84,-124.27"/>
</g>
<!-- router_routing_classifier_line_51_if_1 -->
<g id="node9" class="node">
<title>router_routing_classifier_line_51_if_1</title>
<polygon fill="wheat" stroke="black" points="378.75,-122.25 138.5,-122.25 138.5,-86.25 378.75,-86.25 378.75,-122.25"/>
<text xml:space="preserve" text-anchor="middle" x="258.62" y="-98.45" font-family="Helvetica,sans-Serif" font-size="14.00">router_routing_classifier_line_51_if_1</text>
</g>
<!-- router_routing_classifier_line_49_if_2&#45;&gt;router_routing_classifier_line_51_if_1 -->
<g id="edge6" class="edge">
<title>router_routing_classifier_line_49_if_2&#45;&gt;router_routing_classifier_line_51_if_1</title>
<path fill="none" stroke="black" d="M258.62,-172.04C258.62,-161.09 258.62,-146.69 258.62,-134.07"/>
<polygon fill="black" stroke="black" points="262.13,-134.2 258.63,-124.2 255.13,-134.2 262.13,-134.2"/>
<text xml:space="preserve" text-anchor="middle" x="372.62" y="-141.2" font-family="Times,serif" font-size="14.00">not (p.get(&#39;category&#39;) == &#39;technical&#39;)</text>
</g>
<!-- technical_agent -->
<g id="node11" class="node">
<title>technical_agent</title>
<polygon fill="lightblue" stroke="black" points="564.88,-122.25 454.38,-122.25 454.38,-86.25 564.88,-86.25 564.88,-122.25"/>
<text xml:space="preserve" text-anchor="middle" x="509.62" y="-98.45" font-family="Helvetica,sans-Serif" font-size="14.00">technical_agent</text>
</g>
<!-- router_routing_classifier_line_49_if_2&#45;&gt;technical_agent -->
<g id="edge5" class="edge">
<title>router_routing_classifier_line_49_if_2&#45;&gt;technical_agent</title>
<path fill="none" stroke="black" d="M379.02,-181.52C424.66,-176.37 469.91,-168 487.62,-154.5 494.59,-149.19 499.4,-141.19 502.7,-133.17"/>
<polygon fill="black" stroke="black" points="505.95,-134.51 505.85,-123.91 499.32,-132.26 505.95,-134.51"/>
<text xml:space="preserve" text-anchor="middle" x="594.37" y="-141.2" font-family="Times,serif" font-size="14.00">p.get(&#39;category&#39;) == &#39;technical&#39;</text>
</g>
<!-- router_routing_classifier_line_51_if_1&#45;&gt;account_agent -->
<g id="edge3" class="edge">
<title>router_routing_classifier_line_51_if_1&#45;&gt;account_agent</title>
<path fill="none" stroke="black" d="M246.25,-85.87C243.06,-80.47 240.06,-74.34 238.38,-68.25 236.56,-61.68 235.8,-54.42 235.62,-47.55"/>
<polygon fill="black" stroke="black" points="239.11,-47.73 235.76,-37.68 232.11,-47.63 239.11,-47.73"/>
<text xml:space="preserve" text-anchor="middle" x="331" y="-54.95" font-family="Times,serif" font-size="14.00">p.get(&#39;category&#39;) == &#39;account&#39;</text>
</g>
<!-- router_routing_classifier_line_51_if_1&#45;&gt;general_agent -->
<g id="edge4" class="edge">
<title>router_routing_classifier_line_51_if_1&#45;&gt;general_agent</title>
<path fill="none" stroke="black" d="M377.04,-85.76C397.62,-80.94 415.14,-75.11 423.62,-68.25 430.43,-62.75 435.2,-54.69 438.52,-46.69"/>
<polygon fill="black" stroke="black" points="441.74,-48.07 441.69,-37.47 435.12,-45.79 441.74,-48.07"/>
<text xml:space="preserve" text-anchor="middle" x="545.57" y="-54.95" font-family="Times,serif" font-size="14.00">not (p.get(&#39;category&#39;) == &#39;account&#39;)</text>
</g>
<!-- start_routing_classifier -->
<g id="node10" class="node">
<title>start_routing_classifier</title>
<polygon fill="palegreen" stroke="black" points="237.12,-440.75 86.12,-440.75 86.12,-404.75 237.12,-404.75 237.12,-440.75"/>
<text xml:space="preserve" text-anchor="middle" x="161.62" y="-416.95" font-family="Helvetica,sans-Serif" font-size="14.00">start_routing_classifier</text>
</g>
<!-- start_routing_classifier&#45;&gt;classifier -->
<g id="edge1" class="edge">
<title>start_routing_classifier&#45;&gt;classifier</title>
<path fill="none" stroke="black" d="M161.62,-404.56C161.62,-396.98 161.62,-387.85 161.62,-379.29"/>
<polygon fill="black" stroke="black" points="165.13,-379.29 161.63,-369.29 158.13,-379.29 165.13,-379.29"/>
</g>
</g>
</svg>
