<?xml version="1.0" encoding="UTF-8" standalone="no"?>
<!DOCTYPE svg PUBLIC "-//W3C//DTD SVG 1.1//EN"
 "http://www.w3.org/Graphics/SVG/1.1/DTD/svg11.dtd">
<!-- Generated by graphviz
 -->
<!-- Title: decorator_inline_comments Pages: 1 -->
<svg width="462pt" height="426pt"
 viewBox="0.00 0.00 461.94 426.00" xmlns="http://www.w3.org/2000/svg" xmlns:xlink="http://www.w3.org/1999/xlink">
<g id="graph0" class="graph" transform="scale(1 1) rotate(0) translate(4 422)">
<title>decorator_inline_comments</title>
<polygon fill="white" stroke="none" points="-4,4 -4,-422 457.94,-422 457.94,4 -4,4"/>
<!-- classifier -->
<g id="node1" class="node">
<title>classifier</title>
<polygon fill="lightblue" stroke="black" points="221.5,-272 149.25,-272 149.25,-236 221.5,-236 221.5,-272"/>
<text text-anchor="middle" x="185.38" y="-249.7" font-family="Helvetica,sans-Serif" font-size="14.00">classifier</text>
</g>
<!-- router_decorator_inline_comments_flow_line_18_if_1 -->
<g id="node5" class="node">
<title>router_decorator_inline_comments_flow_line_18_if_1</title>
<polygon fill="wheat" stroke="black" points="362.88,-199 7.88,-199 7.88,-163 362.88,-163 362.88,-199"/>
<text text-anchor="middle" x="185.38" y="-176.7" font-family="Helvetica,sans-Serif" font-size="14.00">router_decorator_inline_comments_flow_line_18_if_1</text>
</g>
<!-- classifier&#45;&gt;router_decorator_inline_comments_flow_line_18_if_1 -->
<g id="edge5" class="edge">
<title>classifier&#45;&gt;router_decorator_inline_comments_flow_line_18_if_1</title>
<path fill="none" stroke="black" d="M185.38,-235.81C185.38,-228.23 185.38,-219.1 185.38,-210.54"/>
<polygon fill="black" stroke="black" points="188.88,-210.54 185.38,-200.54 181.88,-210.54 188.88,-210.54"/>
</g>
<!-- end_decorator_inline_comments_flow -->
<g id="node2" class="node">
<title>end_decorator_inline_comments_flow</title>
<polygon fill="palegreen" stroke="black" points="315,-36 53.75,-36 53.75,0 315,0 315,-36"/>
<text text-anchor="middle" x="184.38" y="-13.7" font-family="Helvetica,sans-Serif" font-size="14.00">end_decorator_inline_comments_flow</text>
</g>
<!-- fast_handler -->
<g id="node3" class="node">
<title>fast_handler</title>
<polygon fill="lightblue" stroke="black" points="168.12,-109 72.62,-109 72.62,-73 168.12,-73 168.12,-109"/>
<text text-anchor="middle" x="120.38" y="-86.7" font-family="Helvetica,sans-Serif" font-size="14.00">fast_handler</text>
</g>
<!-- fast_handler&#45;&gt;end_decorator_inline_comments_flow -->
<g id="edge6" class="edge">
<title>fast_handler&#45;&gt;end_decorator_inline_comments_flow</title>
<path fill="none" stroke="black" d="M135.87,-72.81C143.57,-64.27 153.03,-53.77 161.55,-44.32"/>
<polygon fill="black" stroke="black" points="163.92,-46.92 168.01,-37.15 158.72,-42.24 163.92,-46.92"/>
</g>
<!-- router_decorator_inline_comments_flow_line_16_seq_2 -->
<g id="node4" class="node">
<title>router_decorator_inline_comments_flow_line_16_seq_2</title>
<polygon fill="wheat" stroke="black" points="370.75,-345 0,-345 0,-309 370.75,-309 370.75,-345"/>
<text text-anchor="middle" x="185.38" y="-322.7" font-family="Helvetica,sans-Serif" font-size="14.00">router_decorator_inline_comments_flow_line_16_seq_2</text>
</g>
<!-- router_decorator_inline_comments_flow_line_16_seq_2&#45;&gt;classifier -->
<g id="edge4" class="edge">
<title>router_decorator_inline_comments_flow_line_16_seq_2&#45;&gt;classifier</title>
<path fill="none" stroke="black" d="M185.38,-308.81C185.38,-301.23 185.38,-292.1 185.38,-283.54"/>
<polygon fill="black" stroke="black" points="188.88,-283.54 185.38,-273.54 181.88,-283.54 188.88,-283.54"/>
</g>
<!-- router_decorator_inline_comments_flow_line_18_if_1&#45;&gt;fast_handler -->
<g id="edge2" class="edge">
<title>router_decorator_inline_comments_flow_line_18_if_1&#45;&gt;fast_handler</title>
<path fill="none" stroke="black" d="M115.39,-162.63C107.83,-158.06 101.1,-152.29 96.12,-145 90.66,-136.98 92.69,-127.53 97.37,-118.85"/>
<polygon fill="black" stroke="black" points="100.12,-121.04 102.69,-110.76 94.27,-117.19 100.12,-121.04"/>
<text text-anchor="middle" x="175.25" y="-131.7" font-family="Times,serif" font-size="14.00">p[&#39;category&#39;] == &#39;priority&#39;</text>
</g>
<!-- standard_handler -->
<g id="node6" class="node">
<title>standard_handler</title>
<polygon fill="lightblue" stroke="black" points="327.62,-109 199.12,-109 199.12,-73 327.62,-73 327.62,-109"/>
<text text-anchor="middle" x="263.38" y="-86.7" font-family="Helvetica,sans-Serif" font-size="14.00">standard_handler</text>
</g>
<!-- router_decorator_inline_comments_flow_line_18_if_1&#45;&gt;standard_handler -->
<g id="edge3" class="edge">
<title>router_decorator_inline_comments_flow_line_18_if_1&#45;&gt;standard_handler</title>
<path fill="none" stroke="black" d="M234.29,-162.58C241.99,-157.92 249.12,-152.14 254.38,-145 259.49,-138.05 262.09,-129.21 263.31,-120.75"/>
<polygon fill="black" stroke="black" points="266.8,-121.04 264.13,-110.79 259.82,-120.47 266.8,-121.04"/>
<text text-anchor="middle" x="357.94" y="-131.7" font-family="Times,serif" font-size="14.00">not (p[&#39;category&#39;] == &#39;priority&#39;)</text>
</g>
<!-- standard_handler&#45;&gt;end_decorator_inline_comments_flow -->
<g id="edge7" class="edge">
<title>standard_handler&#45;&gt;end_decorator_inline_comments_flow</title>
<path fill="none" stroke="black" d="M244.25,-72.81C234.62,-64.16 222.76,-53.5 212.14,-43.96"/>
<polygon fill="black" stroke="black" points="214.5,-41.37 204.72,-37.29 209.82,-46.57 214.5,-41.37"/>
</g>
<!-- start_decorator_inline_comments_flow -->
<g id="node7" class="node">
<title>start_decorator_inline_comments_flow</title>
<polygon fill="palegreen" stroke="black" points="319,-418 51.75,-418 51.75,-382 319,-382 319,-418"/>
<text text-anchor="middle" x="185.38" y="-395.7" font-family="Helvetica,sans-Serif" font-size="14.00">start_decorator_inline_comments_flow</text>
</g>
<!-- start_decorator_inline_comments_flow&#45;&gt;router_decorator_inline_comments_flow_line_16_seq_2 -->
<g id="edge1" class="edge">
<title>start_decorator_inline_comments_flow&#45;&gt;router_decorator_inline_comments_flow_line_16_seq_2</title>
<path fill="none" stroke="black" d="M185.38,-381.81C185.38,-374.23 185.38,-365.1 185.38,-356.54"/>
<polygon fill="black" stroke="black" points="188.88,-356.54 185.38,-346.54 181.88,-356.54 188.88,-356.54"/>
</g>
</g>
</svg>
