<?xml version="1.0" encoding="UTF-8" standalone="no"?>
<!DOCTYPE svg PUBLIC "-//W3C//DTD SVG 1.1//EN"
 "http://www.w3.org/Graphics/SVG/1.1/DTD/svg11.dtd">
<!-- Generated by graphviz version 13.0.1 (20250615.1724)
 -->
<!-- Title: flow Pages: 1 -->
<svg width="285pt" height="365pt"
 viewBox="0.00 0.00 285.00 365.00" xmlns="http://www.w3.org/2000/svg" xmlns:xlink="http://www.w3.org/1999/xlink">
<g id="graph0" class="graph" transform="scale(1 1) rotate(0) translate(4 360.95)">
<title>flow</title>
<polygon fill="white" stroke="none" points="-4,4 -4,-360.95 280.8,-360.95 280.8,4 -4,4"/>
<!-- start_decorator_definitions_flow -->
<g id="node1" class="node">
<title>start_decorator_definitions_flow</title>
<path fill="lightgreen" stroke="black" d="M264.8,-356.95C264.8,-356.95 12,-356.95 12,-356.95 6,-356.95 0,-350.95 0,-344.95 0,-344.95 0,-286.65 0,-286.65 0,-280.65 6,-274.65 12,-274.65 12,-274.65 264.8,-274.65 264.8,-274.65 270.8,-274.65 276.8,-280.65 276.8,-286.65 276.8,-286.65 276.8,-344.95 276.8,-344.95 276.8,-350.95 270.8,-356.95 264.8,-356.95"/>
<polygon fill="white" stroke="none" points="14.4,-315.8 14.4,-342.55 262.4,-342.55 262.4,-315.8 14.4,-315.8"/>
<polygon fill="none" stroke="black" points="14.4,-315.8 14.4,-342.55 262.4,-342.55 262.4,-315.8 14.4,-315.8"/>
<text xml:space="preserve" text-anchor="start" x="21.4" y="-327.05" font-family="Courier,monospace" font-style="italic" font-size="10.00">p = start_decorator_definitions_flow(p)</text>
<polygon fill="white" stroke="none" points="14.4,-289.05 14.4,-315.8 262.4,-315.8 262.4,-289.05 14.4,-289.05"/>
<polygon fill="none" stroke="black" points="14.4,-289.05 14.4,-315.8 262.4,-315.8 262.4,-289.05 14.4,-289.05"/>
<text xml:space="preserve" text-anchor="start" x="21.4" y="-299.3" font-family="Courier,monospace" font-size="10.00">p = inject_trace(p)</text>
</g>
<!-- validate -->
<g id="node4" class="node">
<title>validate</title>
<path fill="lightblue" stroke="black" d="M192.8,-238.65C192.8,-238.65 84,-238.65 84,-238.65 78,-238.65 72,-232.65 72,-226.65 72,-226.65 72,-195.1 72,-195.1 72,-189.1 78,-183.1 84,-183.1 84,-183.1 192.8,-183.1 192.8,-183.1 198.8,-183.1 204.8,-189.1 204.8,-195.1 204.8,-195.1 204.8,-226.65 204.8,-226.65 204.8,-232.65 198.8,-238.65 192.8,-238.65"/>
<polygon fill="white" stroke="none" points="86.4,-197.5 86.4,-224.25 190.4,-224.25 190.4,-197.5 86.4,-197.5"/>
<polygon fill="none" stroke="black" points="86.4,-197.5 86.4,-224.25 190.4,-224.25 190.4,-197.5 86.4,-197.5"/>
<text xml:space="preserve" text-anchor="start" x="93.4" y="-208.75" font-family="Courier,monospace" font-style="italic" font-size="10.00">p = validate(p)</text>
</g>
<!-- start_decorator_definitions_flow&#45;&gt;validate -->
<g id="edge2" class="edge">
<title>start_decorator_definitions_flow&#45;&gt;validate</title>
<path fill="none" stroke="black" d="M138.4,-274.42C138.4,-266.56 138.4,-258.35 138.4,-250.55"/>
<polygon fill="black" stroke="black" points="141.9,-250.65 138.4,-240.65 134.9,-250.65 141.9,-250.65"/>
</g>
<!-- end_decorator_definitions_flow -->
<g id="node2" class="node">
<title>end_decorator_definitions_flow</title>
<path fill="lightgreen" stroke="black" d="M258.8,-55.55C258.8,-55.55 18,-55.55 18,-55.55 12,-55.55 6,-49.55 6,-43.55 6,-43.55 6,-12 6,-12 6,-6 12,0 18,0 18,0 258.8,0 258.8,0 264.8,0 270.8,-6 270.8,-12 270.8,-12 270.8,-43.55 270.8,-43.55 270.8,-49.55 264.8,-55.55 258.8,-55.55"/>
<polygon fill="white" stroke="none" points="20.4,-14.4 20.4,-41.15 256.4,-41.15 256.4,-14.4 20.4,-14.4"/>
<polygon fill="none" stroke="black" points="20.4,-14.4 20.4,-41.15 256.4,-41.15 256.4,-14.4 20.4,-14.4"/>
<text xml:space="preserve" text-anchor="start" x="27.4" y="-25.65" font-family="Courier,monospace" font-style="italic" font-size="10.00">p = end_decorator_definitions_flow(p)</text>
</g>
<!-- enrich -->
<g id="node3" class="node">
<title>enrich</title>
<path fill="lightblue" stroke="black" d="M186.8,-147.1C186.8,-147.1 90,-147.1 90,-147.1 84,-147.1 78,-141.1 78,-135.1 78,-135.1 78,-103.55 78,-103.55 78,-97.55 84,-91.55 90,-91.55 90,-91.55 186.8,-91.55 186.8,-91.55 192.8,-91.55 198.8,-97.55 198.8,-103.55 198.8,-103.55 198.8,-135.1 198.8,-135.1 198.8,-141.1 192.8,-147.1 186.8,-147.1"/>
<polygon fill="white" stroke="none" points="92.4,-105.95 92.4,-132.7 184.4,-132.7 184.4,-105.95 92.4,-105.95"/>
<polygon fill="none" stroke="black" points="92.4,-105.95 92.4,-132.7 184.4,-132.7 184.4,-105.95 92.4,-105.95"/>
<text xml:space="preserve" text-anchor="start" x="99.4" y="-117.2" font-family="Courier,monospace" font-style="italic" font-size="10.00">p = enrich(p)</text>
</g>
<!-- enrich&#45;&gt;end_decorator_definitions_flow -->
<g id="edge1" class="edge">
<title>enrich&#45;&gt;end_decorator_definitions_flow</title>
<path fill="none" stroke="black" d="M138.4,-91.46C138.4,-83.82 138.4,-75.36 138.4,-67.18"/>
<polygon fill="black" stroke="black" points="141.9,-67.45 138.4,-57.45 134.9,-67.45 141.9,-67.45"/>
</g>
<!-- validate&#45;&gt;enrich -->
<g id="edge3" class="edge">
<title>validate&#45;&gt;enrich</title>
<path fill="none" stroke="black" d="M138.4,-183.01C138.4,-175.37 138.4,-166.91 138.4,-158.73"/>
<polygon fill="black" stroke="black" points="141.9,-159 138.4,-149 134.9,-159 141.9,-159"/>
</g>
</g>
</svg>
