<?xml version="1.0" encoding="UTF-8" standalone="no"?>
<!DOCTYPE svg PUBLIC "-//W3C//DTD SVG 1.1//EN"
 "http://www.w3.org/Graphics/SVG/1.1/DTD/svg11.dtd">
<!-- Generated by graphviz version 13.0.1 (20250615.1724)
 -->
<!-- Title: hierarchical_delegation Pages: 1 -->
<svg width="928pt" height="731pt"
 viewBox="0.00 0.00 928.00 731.00" xmlns="http://www.w3.org/2000/svg" xmlns:xlink="http://www.w3.org/1999/xlink">
<g id="graph0" class="graph" transform="scale(1 1) rotate(0) translate(4 727.35)">
<title>hierarchical_delegation</title>
<polygon fill="white" stroke="none" points="-4,4 -4,-727.35 923.77,-727.35 923.77,4 -4,4"/>
<!-- start_hierarchical_delegation -->
<g id="node1" class="node">
<title>start_hierarchical_delegation</title>
<polygon fill="palegreen" stroke="black" points="529.12,-723.35 340.62,-723.35 340.62,-687.35 529.12,-687.35 529.12,-723.35"/>
<text xml:space="preserve" text-anchor="middle" x="434.88" y="-699.55" font-family="Helvetica,sans-Serif" font-size="14.00">start_hierarchical_delegation</text>
</g>
<!-- root_agent -->
<g id="node10" class="node">
<title>root_agent</title>
<polygon fill="lightblue" stroke="black" points="475.12,-650.35 394.62,-650.35 394.62,-614.35 475.12,-614.35 475.12,-650.35"/>
<text xml:space="preserve" text-anchor="middle" x="434.88" y="-626.55" font-family="Helvetica,sans-Serif" font-size="14.00">root_agent</text>
</g>
<!-- start_hierarchical_delegation&#45;&gt;root_agent -->
<g id="edge1" class="edge">
<title>start_hierarchical_delegation&#45;&gt;root_agent</title>
<path fill="none" stroke="black" d="M434.88,-687.16C434.88,-679.58 434.88,-670.45 434.88,-661.89"/>
<polygon fill="black" stroke="black" points="438.38,-661.89 434.88,-651.89 431.38,-661.89 438.38,-661.89"/>
</g>
<!-- api_specialist -->
<g id="node2" class="node">
<title>api_specialist</title>
<polygon fill="lightblue" stroke="black" points="151.38,-156.6 54.38,-156.6 54.38,-120.6 151.38,-120.6 151.38,-156.6"/>
<text xml:space="preserve" text-anchor="middle" x="102.88" y="-132.8" font-family="Helvetica,sans-Serif" font-size="14.00">api_specialist</text>
</g>
<!-- __end__ -->
<g id="node19" class="node">
<title>__end__</title>
<ellipse fill="black" stroke="black" cx="461.88" cy="-14.8" rx="10.8" ry="10.8"/>
<ellipse fill="none" stroke="black" cx="461.88" cy="-14.8" rx="14.8" ry="14.8"/>
</g>
<!-- api_specialist&#45;&gt;__end__ -->
<g id="edge21" class="edge">
<title>api_specialist&#45;&gt;__end__</title>
<path fill="none" stroke="black" d="M151.66,-121.05C229.33,-94.7 378.29,-44.16 437.11,-24.2"/>
<polygon fill="black" stroke="black" points="438.15,-27.55 446.49,-21.02 435.9,-20.92 438.15,-27.55"/>
</g>
<!-- content_generalist -->
<g id="node3" class="node">
<title>content_generalist</title>
<polygon fill="lightblue" stroke="black" points="635,-102.6 508.75,-102.6 508.75,-66.6 635,-66.6 635,-102.6"/>
<text xml:space="preserve" text-anchor="middle" x="571.88" y="-78.8" font-family="Helvetica,sans-Serif" font-size="14.00">content_generalist</text>
</g>
<!-- content_generalist&#45;&gt;__end__ -->
<g id="edge22" class="edge">
<title>content_generalist&#45;&gt;__end__</title>
<path fill="none" stroke="black" d="M543.55,-66.14C524.99,-54.7 501.09,-39.97 483.95,-29.4"/>
<polygon fill="black" stroke="black" points="485.89,-26.49 475.54,-24.22 482.22,-32.45 485.89,-26.49"/>
</g>
<!-- content_team_lead -->
<g id="node4" class="node">
<title>content_team_lead</title>
<polygon fill="lightblue" stroke="black" points="750.62,-404.85 619.12,-404.85 619.12,-368.85 750.62,-368.85 750.62,-404.85"/>
<text xml:space="preserve" text-anchor="middle" x="684.88" y="-381.05" font-family="Helvetica,sans-Serif" font-size="14.00">content_team_lead</text>
</g>
<!-- router_hierarchical_delegation_line_76_if_4 -->
<g id="node15" class="node">
<title>router_hierarchical_delegation_line_76_if_4</title>
<polygon fill="wheat" stroke="black" points="814.75,-296.85 537,-296.85 537,-260.85 814.75,-260.85 814.75,-296.85"/>
<text xml:space="preserve" text-anchor="middle" x="675.88" y="-273.05" font-family="Helvetica,sans-Serif" font-size="14.00">router_hierarchical_delegation_line_76_if_4</text>
</g>
<!-- content_team_lead&#45;&gt;router_hierarchical_delegation_line_76_if_4 -->
<g id="edge12" class="edge">
<title>content_team_lead&#45;&gt;router_hierarchical_delegation_line_76_if_4</title>
<path fill="none" stroke="black" d="M683.43,-368.82C682.05,-352.61 679.96,-327.91 678.32,-308.64"/>
<polygon fill="black" stroke="black" points="681.81,-308.37 677.48,-298.7 674.83,-308.96 681.81,-308.37"/>
</g>
<!-- data_generalist -->
<g id="node5" class="node">
<title>data_generalist</title>
<polygon fill="lightblue" stroke="black" points="374,-156.6 265.75,-156.6 265.75,-120.6 374,-120.6 374,-156.6"/>
<text xml:space="preserve" text-anchor="middle" x="319.88" y="-132.8" font-family="Helvetica,sans-Serif" font-size="14.00">data_generalist</text>
</g>
<!-- data_generalist&#45;&gt;__end__ -->
<g id="edge23" class="edge">
<title>data_generalist&#45;&gt;__end__</title>
<path fill="none" stroke="black" d="M340.22,-120.15C367.52,-96.73 415.68,-55.43 442.48,-32.43"/>
<polygon fill="black" stroke="black" points="444.55,-35.27 449.86,-26.11 439.99,-29.96 444.55,-35.27"/>
</g>
<!-- data_team_lead -->
<g id="node6" class="node">
<title>data_team_lead</title>
<polygon fill="lightblue" stroke="black" points="385.62,-491.1 272.12,-491.1 272.12,-455.1 385.62,-455.1 385.62,-491.1"/>
<text xml:space="preserve" text-anchor="middle" x="328.88" y="-467.3" font-family="Helvetica,sans-Serif" font-size="14.00">data_team_lead</text>
</g>
<!-- router_hierarchical_delegation_line_65_if_2 -->
<g id="node12" class="node">
<title>router_hierarchical_delegation_line_65_if_2</title>
<polygon fill="wheat" stroke="black" points="467.75,-404.85 190,-404.85 190,-368.85 467.75,-368.85 467.75,-404.85"/>
<text xml:space="preserve" text-anchor="middle" x="328.88" y="-381.05" font-family="Helvetica,sans-Serif" font-size="14.00">router_hierarchical_delegation_line_65_if_2</text>
</g>
<!-- data_team_lead&#45;&gt;router_hierarchical_delegation_line_65_if_2 -->
<g id="edge15" class="edge">
<title>data_team_lead&#45;&gt;router_hierarchical_delegation_line_65_if_2</title>
<path fill="none" stroke="black" d="M328.88,-454.64C328.88,-443.69 328.88,-429.29 328.88,-416.67"/>
<polygon fill="black" stroke="black" points="332.38,-416.8 328.88,-406.8 325.38,-416.8 332.38,-416.8"/>
</g>
<!-- editor -->
<g id="node7" class="node">
<title>editor</title>
<polygon fill="lightblue" stroke="black" points="758.88,-102.6 704.88,-102.6 704.88,-66.6 758.88,-66.6 758.88,-102.6"/>
<text xml:space="preserve" text-anchor="middle" x="731.88" y="-78.8" font-family="Helvetica,sans-Serif" font-size="14.00">editor</text>
</g>
<!-- editor&#45;&gt;__end__ -->
<g id="edge24" class="edge">
<title>editor&#45;&gt;__end__</title>
<path fill="none" stroke="black" d="M704.5,-76.73C652,-63.54 537.87,-34.88 487.1,-22.14"/>
<polygon fill="black" stroke="black" points="488.2,-18.8 477.65,-19.76 486.49,-25.59 488.2,-18.8"/>
</g>
<!-- final_assembler -->
<g id="node8" class="node">
<title>final_assembler</title>
<polygon fill="lightblue" stroke="black" points="525.5,-210.6 414.25,-210.6 414.25,-174.6 525.5,-174.6 525.5,-210.6"/>
<text xml:space="preserve" text-anchor="middle" x="469.88" y="-186.8" font-family="Helvetica,sans-Serif" font-size="14.00">final_assembler</text>
</g>
<!-- final_assembler&#45;&gt;__end__ -->
<g id="edge25" class="edge">
<title>final_assembler&#45;&gt;__end__</title>
<path fill="none" stroke="black" d="M463.33,-174.4C461.51,-168.81 459.78,-162.52 458.88,-156.6 452.74,-116.6 455.79,-69.47 458.71,-41.15"/>
<polygon fill="black" stroke="black" points="462.17,-41.73 459.81,-31.4 455.22,-40.95 462.17,-41.73"/>
</g>
<!-- generalist -->
<g id="node9" class="node">
<title>generalist</title>
<polygon fill="lightblue" stroke="black" points="560.12,-350.85 485.62,-350.85 485.62,-314.85 560.12,-314.85 560.12,-350.85"/>
<text xml:space="preserve" text-anchor="middle" x="522.88" y="-327.05" font-family="Helvetica,sans-Serif" font-size="14.00">generalist</text>
</g>
<!-- generalist&#45;&gt;final_assembler -->
<g id="edge20" class="edge">
<title>generalist&#45;&gt;final_assembler</title>
<path fill="none" stroke="black" d="M516.27,-314.62C507.34,-291.34 491.32,-249.54 480.64,-221.68"/>
<polygon fill="black" stroke="black" points="483.95,-220.54 477.11,-212.46 477.42,-223.05 483.95,-220.54"/>
</g>
<!-- router_hierarchical_delegation_line_61_if_6 -->
<g id="node11" class="node">
<title>router_hierarchical_delegation_line_61_if_6</title>
<polygon fill="wheat" stroke="black" points="573.75,-577.35 296,-577.35 296,-541.35 573.75,-541.35 573.75,-577.35"/>
<text xml:space="preserve" text-anchor="middle" x="434.88" y="-553.55" font-family="Helvetica,sans-Serif" font-size="14.00">router_hierarchical_delegation_line_61_if_6</text>
</g>
<!-- root_agent&#45;&gt;router_hierarchical_delegation_line_61_if_6 -->
<g id="edge2" class="edge">
<title>root_agent&#45;&gt;router_hierarchical_delegation_line_61_if_6</title>
<path fill="none" stroke="black" d="M434.88,-614.16C434.88,-606.58 434.88,-597.45 434.88,-588.89"/>
<polygon fill="black" stroke="black" points="438.38,-588.89 434.88,-578.89 431.38,-588.89 438.38,-588.89"/>
</g>
<!-- router_hierarchical_delegation_line_61_if_6&#45;&gt;data_team_lead -->
<g id="edge14" class="edge">
<title>router_hierarchical_delegation_line_61_if_6&#45;&gt;data_team_lead</title>
<path fill="none" stroke="black" d="M380.07,-541.04C370.52,-536.34 361.22,-530.51 353.62,-523.35 347.38,-517.46 342.47,-509.65 338.73,-501.99"/>
<polygon fill="black" stroke="black" points="341.97,-500.66 334.8,-492.86 335.54,-503.43 341.97,-500.66"/>
<text xml:space="preserve" text-anchor="middle" x="432.75" y="-510.05" font-family="Times,serif" font-size="14.00">p.get(&#39;domain&#39;) == &#39;data&#39;</text>
</g>
<!-- router_hierarchical_delegation_line_72_if_5 -->
<g id="node14" class="node">
<title>router_hierarchical_delegation_line_72_if_5</title>
<polygon fill="wheat" stroke="black" points="681.75,-491.1 404,-491.1 404,-455.1 681.75,-455.1 681.75,-491.1"/>
<text xml:space="preserve" text-anchor="middle" x="542.88" y="-467.3" font-family="Helvetica,sans-Serif" font-size="14.00">router_hierarchical_delegation_line_72_if_5</text>
</g>
<!-- router_hierarchical_delegation_line_61_if_6&#45;&gt;router_hierarchical_delegation_line_72_if_5 -->
<g id="edge16" class="edge">
<title>router_hierarchical_delegation_line_61_if_6&#45;&gt;router_hierarchical_delegation_line_72_if_5</title>
<path fill="none" stroke="black" d="M484.69,-540.88C494.34,-536.12 503.91,-530.3 511.88,-523.35 518.86,-517.25 524.82,-509.19 529.59,-501.37"/>
<polygon fill="black" stroke="black" points="532.61,-503.15 534.43,-492.72 526.5,-499.74 532.61,-503.15"/>
<text xml:space="preserve" text-anchor="middle" x="621.98" y="-510.05" font-family="Times,serif" font-size="14.00">not (p.get(&#39;domain&#39;) == &#39;data&#39;)</text>
</g>
<!-- router_hierarchical_delegation_line_67_if_1 -->
<g id="node13" class="node">
<title>router_hierarchical_delegation_line_67_if_1</title>
<polygon fill="wheat" stroke="black" points="277.75,-296.85 0,-296.85 0,-260.85 277.75,-260.85 277.75,-296.85"/>
<text xml:space="preserve" text-anchor="middle" x="138.88" y="-273.05" font-family="Helvetica,sans-Serif" font-size="14.00">router_hierarchical_delegation_line_67_if_1</text>
</g>
<!-- router_hierarchical_delegation_line_65_if_2&#45;&gt;router_hierarchical_delegation_line_67_if_1 -->
<g id="edge6" class="edge">
<title>router_hierarchical_delegation_line_65_if_2&#45;&gt;router_hierarchical_delegation_line_67_if_1</title>
<path fill="none" stroke="black" d="M189.65,-372.95C165.18,-367.85 144.88,-360.75 136.62,-350.85 126.9,-339.19 127.05,-322.33 129.82,-307.97"/>
<polygon fill="black" stroke="black" points="133.14,-309.14 132.11,-298.6 126.34,-307.48 133.14,-309.14"/>
<text xml:space="preserve" text-anchor="middle" x="227.75" y="-326.68" font-family="Times,serif" font-size="14.00">not (p.get(&#39;subtask&#39;) == &#39;sql&#39;)</text>
</g>
<!-- sql_specialist -->
<g id="node17" class="node">
<title>sql_specialist</title>
<polygon fill="lightblue" stroke="black" points="443,-296.85 346.75,-296.85 346.75,-260.85 443,-260.85 443,-296.85"/>
<text xml:space="preserve" text-anchor="middle" x="394.88" y="-273.05" font-family="Helvetica,sans-Serif" font-size="14.00">sql_specialist</text>
</g>
<!-- router_hierarchical_delegation_line_65_if_2&#45;&gt;sql_specialist -->
<g id="edge5" class="edge">
<title>router_hierarchical_delegation_line_65_if_2&#45;&gt;sql_specialist</title>
<path fill="none" stroke="black" d="M324.96,-368.43C322.53,-353.15 321.49,-330.93 331.38,-314.85 333.86,-310.81 336.99,-307.2 340.52,-303.98"/>
<polygon fill="black" stroke="black" points="342.38,-306.96 348.17,-298.09 338.11,-301.42 342.38,-306.96"/>
<text xml:space="preserve" text-anchor="middle" x="404.12" y="-326.68" font-family="Times,serif" font-size="14.00">p.get(&#39;subtask&#39;) == &#39;sql&#39;</text>
</g>
<!-- router_hierarchical_delegation_line_67_if_1&#45;&gt;api_specialist -->
<g id="edge3" class="edge">
<title>router_hierarchical_delegation_line_67_if_1&#45;&gt;api_specialist</title>
<path fill="none" stroke="black" d="M93.38,-260.36C86.48,-255.71 80.29,-249.95 76.12,-242.85 62.26,-219.25 73.33,-188.48 85.15,-166.69"/>
<polygon fill="black" stroke="black" points="88.15,-168.5 90.15,-158.09 82.1,-164.98 88.15,-168.5"/>
<text xml:space="preserve" text-anchor="middle" x="150" y="-229.55" font-family="Times,serif" font-size="14.00">p.get(&#39;subtask&#39;) == &#39;api&#39;</text>
</g>
<!-- router_hierarchical_delegation_line_67_if_1&#45;&gt;data_generalist -->
<g id="edge4" class="edge">
<title>router_hierarchical_delegation_line_67_if_1&#45;&gt;data_generalist</title>
<path fill="none" stroke="black" d="M191.06,-260.52C202.37,-255.65 213.91,-249.76 223.88,-242.85 254.68,-221.5 282.98,-188.75 300.75,-165.88"/>
<polygon fill="black" stroke="black" points="303.51,-168.02 306.78,-157.94 297.94,-163.78 303.51,-168.02"/>
<text xml:space="preserve" text-anchor="middle" x="333.45" y="-229.55" font-family="Times,serif" font-size="14.00">not (p.get(&#39;subtask&#39;) == &#39;api&#39;)</text>
</g>
<!-- router_hierarchical_delegation_line_67_if_1&#45;&gt;final_assembler -->
<g id="edge18" class="edge">
<title>router_hierarchical_delegation_line_67_if_1&#45;&gt;final_assembler</title>
<path fill="none" stroke="black" d="M277.95,-266.1C346.64,-259.42 417.84,-250.82 431.88,-242.85 441.29,-237.5 449.16,-228.79 455.25,-220.17"/>
<polygon fill="black" stroke="black" points="458.08,-222.24 460.54,-211.93 452.19,-218.45 458.08,-222.24"/>
</g>
<!-- router_hierarchical_delegation_line_72_if_5&#45;&gt;content_team_lead -->
<g id="edge11" class="edge">
<title>router_hierarchical_delegation_line_72_if_5&#45;&gt;content_team_lead</title>
<path fill="none" stroke="black" d="M682.16,-459.36C706.93,-454.25 727.53,-447.1 735.88,-437.1 743.12,-428.42 738.6,-419.63 729.82,-411.92"/>
<polygon fill="black" stroke="black" points="732.1,-409.25 721.99,-406.09 727.92,-414.87 732.1,-409.25"/>
<text xml:space="preserve" text-anchor="middle" x="829.1" y="-423.8" font-family="Times,serif" font-size="14.00">p.get(&#39;domain&#39;) == &#39;content&#39;</text>
</g>
<!-- router_hierarchical_delegation_line_72_if_5&#45;&gt;generalist -->
<g id="edge13" class="edge">
<title>router_hierarchical_delegation_line_72_if_5&#45;&gt;generalist</title>
<path fill="none" stroke="black" d="M526.07,-454.92C521.93,-449.63 518.05,-443.49 515.88,-437.1 507.6,-412.82 510.73,-383.51 515.12,-362.33"/>
<polygon fill="black" stroke="black" points="518.51,-363.2 517.36,-352.66 511.69,-361.62 518.51,-363.2"/>
<text xml:space="preserve" text-anchor="middle" x="623.88" y="-423.8" font-family="Times,serif" font-size="14.00">not (p.get(&#39;domain&#39;) == &#39;content&#39;)</text>
</g>
<!-- router_hierarchical_delegation_line_76_if_4&#45;&gt;final_assembler -->
<g id="edge19" class="edge">
<title>router_hierarchical_delegation_line_76_if_4&#45;&gt;final_assembler</title>
<path fill="none" stroke="black" d="M582.6,-260.39C566.29,-255.74 549.78,-249.97 534.88,-242.85 521.5,-236.46 508.2,-227.06 497.14,-218.18"/>
<polygon fill="black" stroke="black" points="499.51,-215.6 489.59,-211.89 495.03,-220.98 499.51,-215.6"/>
</g>
<!-- router_hierarchical_delegation_line_78_if_3 -->
<g id="node16" class="node">
<title>router_hierarchical_delegation_line_78_if_3</title>
<polygon fill="wheat" stroke="black" points="875.75,-210.6 598,-210.6 598,-174.6 875.75,-174.6 875.75,-210.6"/>
<text xml:space="preserve" text-anchor="middle" x="736.88" y="-186.8" font-family="Helvetica,sans-Serif" font-size="14.00">router_hierarchical_delegation_line_78_if_3</text>
</g>
<!-- router_hierarchical_delegation_line_76_if_4&#45;&gt;router_hierarchical_delegation_line_78_if_3 -->
<g id="edge10" class="edge">
<title>router_hierarchical_delegation_line_76_if_4&#45;&gt;router_hierarchical_delegation_line_78_if_3</title>
<path fill="none" stroke="black" d="M698.53,-260.41C704.35,-255.2 710.27,-249.17 714.88,-242.85 719.56,-236.42 723.56,-228.83 726.82,-221.56"/>
<polygon fill="black" stroke="black" points="730.03,-222.94 730.59,-212.36 723.56,-220.28 730.03,-222.94"/>
<text xml:space="preserve" text-anchor="middle" x="821.52" y="-229.55" font-family="Times,serif" font-size="14.00">not (p.get(&#39;subtask&#39;) == &#39;write&#39;)</text>
</g>
<!-- writer -->
<g id="node18" class="node">
<title>writer</title>
<polygon fill="lightblue" stroke="black" points="521.88,-156.6 467.88,-156.6 467.88,-120.6 521.88,-120.6 521.88,-156.6"/>
<text xml:space="preserve" text-anchor="middle" x="494.88" y="-132.8" font-family="Helvetica,sans-Serif" font-size="14.00">writer</text>
</g>
<!-- router_hierarchical_delegation_line_76_if_4&#45;&gt;writer -->
<g id="edge9" class="edge">
<title>router_hierarchical_delegation_line_76_if_4&#45;&gt;writer</title>
<path fill="none" stroke="black" d="M575.33,-260.43C566.35,-255.83 558.06,-250.07 551.12,-242.85 529.52,-220.37 550.98,-201.3 534.88,-174.6 532.81,-171.18 530.3,-167.91 527.55,-164.85"/>
<polygon fill="black" stroke="black" points="530.02,-162.36 520.44,-157.84 525.11,-167.35 530.02,-162.36"/>
<text xml:space="preserve" text-anchor="middle" x="631" y="-229.55" font-family="Times,serif" font-size="14.00">p.get(&#39;subtask&#39;) == &#39;write&#39;</text>
</g>
<!-- router_hierarchical_delegation_line_78_if_3&#45;&gt;content_generalist -->
<g id="edge8" class="edge">
<title>router_hierarchical_delegation_line_78_if_3&#45;&gt;content_generalist</title>
<path fill="none" stroke="black" d="M597.85,-175.03C580.26,-170.31 566.19,-164.28 559.88,-156.6 550.07,-144.67 552.52,-127.72 557.68,-113.38"/>
<polygon fill="black" stroke="black" points="560.79,-115.02 561.42,-104.44 554.33,-112.32 560.79,-115.02"/>
<text xml:space="preserve" text-anchor="middle" x="654.38" y="-132.42" font-family="Times,serif" font-size="14.00">not (p.get(&#39;subtask&#39;) == &#39;edit&#39;)</text>
</g>
<!-- router_hierarchical_delegation_line_78_if_3&#45;&gt;editor -->
<g id="edge7" class="edge">
<title>router_hierarchical_delegation_line_78_if_3&#45;&gt;editor</title>
<path fill="none" stroke="black" d="M746.55,-174.31C749.13,-168.82 751.57,-162.61 752.88,-156.6 756.28,-140.97 757.15,-136.02 752.88,-120.6 752.16,-118.01 751.19,-115.41 750.06,-112.88"/>
<polygon fill="black" stroke="black" points="753.26,-111.43 745.48,-104.25 747.08,-114.72 753.26,-111.43"/>
<text xml:space="preserve" text-anchor="middle" x="831.89" y="-132.42" font-family="Times,serif" font-size="14.00">p.get(&#39;subtask&#39;) == &#39;edit&#39;</text>
</g>
<!-- sql_specialist&#45;&gt;final_assembler -->
<g id="edge17" class="edge">
<title>sql_specialist&#45;&gt;final_assembler</title>
<path fill="none" stroke="black" d="M436.49,-260.52C444.15,-255.74 451.44,-249.89 456.88,-242.85 461.49,-236.88 464.47,-229.42 466.39,-222.12"/>
<polygon fill="black" stroke="black" points="469.78,-223.01 468.33,-212.52 462.92,-221.63 469.78,-223.01"/>
</g>
<!-- writer&#45;&gt;__end__ -->
<g id="edge26" class="edge">
<title>writer&#45;&gt;__end__</title>
<path fill="none" stroke="black" d="M490.15,-120.15C484.48,-99.22 474.93,-63.99 468.52,-40.33"/>
<polygon fill="black" stroke="black" points="471.96,-39.65 465.97,-30.91 465.21,-41.48 471.96,-39.65"/>
</g>
</g>
</svg>
