<?xml version="1.0" encoding="UTF-8" standalone="no"?>
<!DOCTYPE svg PUBLIC "-//W3C//DTD SVG 1.1//EN"
 "http://www.w3.org/Graphics/SVG/1.1/DTD/svg11.dtd">
<!-- Generated by graphviz
 -->
<!-- Title: if_empty_branches_flow Pages: 1 -->
<svg width="305pt" height="353pt"
 viewBox="0.00 0.00 304.50 353.00" xmlns="http://www.w3.org/2000/svg" xmlns:xlink="http://www.w3.org/1999/xlink">
<g id="graph0" class="graph" transform="scale(1 1) rotate(0) translate(4 349)">
<title>if_empty_branches_flow</title>
<polygon fill="white" stroke="none" points="-4,4 -4,-349 300.5,-349 300.5,4 -4,4"/>
<!-- end_if_empty_branches_flow -->
<g id="node1" class="node">
<title>end_if_empty_branches_flow</title>
<polygon fill="palegreen" stroke="black" points="249.62,-36 46.88,-36 46.88,0 249.62,0 249.62,-36"/>
<text text-anchor="middle" x="148.25" y="-13.7" font-family="Helvetica,sans-Serif" font-size="14.00">end_if_empty_branches_flow</text>
</g>
<!-- handler_finalize -->
<g id="node2" class="node">
<title>handler_finalize</title>
<polygon fill="lightblue" stroke="black" points="206.88,-109 89.62,-109 89.62,-73 206.88,-73 206.88,-109"/>
<text text-anchor="middle" x="148.25" y="-86.7" font-family="Helvetica,sans-Serif" font-size="14.00">handler_finalize</text>
</g>
<!-- handler_finalize&#45;&gt;end_if_empty_branches_flow -->
<g id="edge4" class="edge">
<title>handler_finalize&#45;&gt;end_if_empty_branches_flow</title>
<path fill="none" stroke="black" d="M148.25,-72.81C148.25,-65.23 148.25,-56.1 148.25,-47.54"/>
<polygon fill="black" stroke="black" points="151.75,-47.54 148.25,-37.54 144.75,-47.54 151.75,-47.54"/>
</g>
<!-- handler_setup -->
<g id="node3" class="node">
<title>handler_setup</title>
<polygon fill="lightblue" stroke="black" points="201.62,-272 94.88,-272 94.88,-236 201.62,-236 201.62,-272"/>
<text text-anchor="middle" x="148.25" y="-249.7" font-family="Helvetica,sans-Serif" font-size="14.00">handler_setup</text>
</g>
<!-- router_if_empty_branches_flow_line_14_if_1 -->
<g id="node4" class="node">
<title>router_if_empty_branches_flow_line_14_if_1</title>
<polygon fill="wheat" stroke="black" points="296.5,-199 0,-199 0,-163 296.5,-163 296.5,-199"/>
<text text-anchor="middle" x="148.25" y="-176.7" font-family="Helvetica,sans-Serif" font-size="14.00">router_if_empty_branches_flow_line_14_if_1</text>
</g>
<!-- handler_setup&#45;&gt;router_if_empty_branches_flow_line_14_if_1 -->
<g id="edge2" class="edge">
<title>handler_setup&#45;&gt;router_if_empty_branches_flow_line_14_if_1</title>
<path fill="none" stroke="black" d="M148.25,-235.81C148.25,-228.23 148.25,-219.1 148.25,-210.54"/>
<polygon fill="black" stroke="black" points="151.75,-210.54 148.25,-200.54 144.75,-210.54 151.75,-210.54"/>
</g>
<!-- router_if_empty_branches_flow_line_14_if_1&#45;&gt;handler_finalize -->
<g id="edge3" class="edge">
<title>router_if_empty_branches_flow_line_14_if_1&#45;&gt;handler_finalize</title>
<path fill="none" stroke="black" d="M148.25,-162.61C148.25,-150.68 148.25,-134.57 148.25,-120.74"/>
<polygon fill="black" stroke="black" points="151.75,-120.86 148.25,-110.86 144.75,-120.86 151.75,-120.86"/>
<text text-anchor="middle" x="212.38" y="-131.7" font-family="Times,serif" font-size="14.00">p[&#39;skip_processing&#39;]</text>
</g>
<!-- start_if_empty_branches_flow -->
<g id="node5" class="node">
<title>start_if_empty_branches_flow</title>
<polygon fill="palegreen" stroke="black" points="252.62,-345 43.88,-345 43.88,-309 252.62,-309 252.62,-345"/>
<text text-anchor="middle" x="148.25" y="-322.7" font-family="Helvetica,sans-Serif" font-size="14.00">start_if_empty_branches_flow</text>
</g>
<!-- start_if_empty_branches_flow&#45;&gt;handler_setup -->
<g id="edge1" class="edge">
<title>start_if_empty_branches_flow&#45;&gt;handler_setup</title>
<path fill="none" stroke="black" d="M148.25,-308.81C148.25,-301.23 148.25,-292.1 148.25,-283.54"/>
<polygon fill="black" stroke="black" points="151.75,-283.54 148.25,-273.54 144.75,-283.54 151.75,-283.54"/>
</g>
</g>
</svg>
