<?xml version="1.0" encoding="UTF-8" standalone="no"?>
<!DOCTYPE svg PUBLIC "-//W3C//DTD SVG 1.1//EN"
 "http://www.w3.org/Graphics/SVG/1.1/DTD/svg11.dtd">
<!-- Generated by graphviz version 13.0.1 (20250615.1724)
 -->
<!-- Title: adk_llm_auditor Pages: 1 -->
<svg width="1267pt" height="1951pt"
 viewBox="0.00 0.00 1267.00 1951.00" xmlns="http://www.w3.org/2000/svg" xmlns:xlink="http://www.w3.org/1999/xlink">
<g id="graph0" class="graph" transform="scale(1 1) rotate(0) translate(4 1946.85)">
<title>adk_llm_auditor</title>
<polygon fill="white" stroke="none" points="-4,4 -4,-1946.85 1262.88,-1946.85 1262.88,4 -4,4"/>
<!-- start_llm_auditor -->
<g id="node1" class="node">
<title>start_llm_auditor</title>
<polygon fill="palegreen" stroke="black" points="237.88,-1942.85 101.88,-1942.85 101.88,-1858.85 237.88,-1858.85 237.88,-1942.85"/>
<text xml:space="preserve" text-anchor="middle" x="169.88" y="-1925.55" font-family="Helvetica,sans-Serif" font-size="14.00">start_llm_auditor</text>
<text xml:space="preserve" text-anchor="middle" x="169.88" y="-1894.55" font-family="Helvetica,sans-Serif" font-size="14.00">p[&#39;iteration&#39;] = 0</text>
<text xml:space="preserve" text-anchor="middle" x="169.88" y="-1879.55" font-family="Helvetica,sans-Serif" font-size="14.00">p[&#39;status&#39;] = &#39;started&#39;</text>
<text xml:space="preserve" text-anchor="middle" x="169.88" y="-1864.55" font-family="Helvetica,sans-Serif" font-size="14.00">p[&#39;partial&#39;] = True</text>
</g>
<!-- extract_claims -->
<g id="node7" class="node">
<title>extract_claims</title>
<polygon fill="lightblue" stroke="black" points="221.38,-1821.85 118.38,-1821.85 118.38,-1785.85 221.38,-1785.85 221.38,-1821.85"/>
<text xml:space="preserve" text-anchor="middle" x="169.88" y="-1798.05" font-family="Helvetica,sans-Serif" font-size="14.00">extract_claims</text>
</g>
<!-- start_llm_auditor&#45;&gt;extract_claims -->
<g id="edge1" class="edge">
<title>start_llm_auditor&#45;&gt;extract_claims</title>
<path fill="none" stroke="black" d="M169.88,-1858.46C169.88,-1850.06 169.88,-1841.4 169.88,-1833.55"/>
<polygon fill="black" stroke="black" points="173.38,-1833.57 169.88,-1823.57 166.38,-1833.57 173.38,-1833.57"/>
</g>
<!-- accuracy_scorer -->
<g id="node2" class="node">
<title>accuracy_scorer</title>
<polygon fill="lightblue" stroke="black" points="570.38,-1105.35 455.38,-1105.35 455.38,-1069.35 570.38,-1069.35 570.38,-1105.35"/>
<text xml:space="preserve" text-anchor="middle" x="512.88" y="-1081.55" font-family="Helvetica,sans-Serif" font-size="14.00">accuracy_scorer</text>
</g>
<!-- fanin_llm_auditor_line_56 -->
<g id="node9" class="node">
<title>fanin_llm_auditor_line_56</title>
<polygon fill="lightblue" stroke="black" points="746.12,-1032.35 575.62,-1032.35 575.62,-996.35 746.12,-996.35 746.12,-1032.35"/>
<text xml:space="preserve" text-anchor="middle" x="660.88" y="-1008.55" font-family="Helvetica,sans-Serif" font-size="14.00">fanin_llm_auditor_line_56</text>
</g>
<!-- accuracy_scorer&#45;&gt;fanin_llm_auditor_line_56 -->
<g id="edge22" class="edge">
<title>accuracy_scorer&#45;&gt;fanin_llm_auditor_line_56</title>
<path fill="none" stroke="black" d="M549.08,-1068.98C568.7,-1059.57 593.16,-1047.83 614.2,-1037.74"/>
<polygon fill="black" stroke="black" points="615.66,-1040.92 623.17,-1033.44 612.64,-1034.61 615.66,-1040.92"/>
</g>
<!-- adk_llm_auditor_QualityScorer_aggregate -->
<g id="node3" class="node">
<title>adk_llm_auditor_QualityScorer_aggregate</title>
<polygon fill="lightblue" stroke="black" points="742.38,-959.35 579.38,-959.35 579.38,-923.35 742.38,-923.35 742.38,-959.35"/>
<text xml:space="preserve" text-anchor="middle" x="660.88" y="-935.55" font-family="Helvetica,sans-Serif" font-size="14.00">QualityScorer.aggregate</text>
</g>
<!-- router_llm_auditor_line_65_if -->
<g id="node21" class="node">
<title>router_llm_auditor_line_65_if</title>
<polygon fill="wheat" stroke="black" points="756.25,-886.35 565.5,-886.35 565.5,-850.35 756.25,-850.35 756.25,-886.35"/>
<text xml:space="preserve" text-anchor="middle" x="660.88" y="-862.55" font-family="Helvetica,sans-Serif" font-size="14.00">router_llm_auditor_line_65_if</text>
</g>
<!-- adk_llm_auditor_QualityScorer_aggregate&#45;&gt;router_llm_auditor_line_65_if -->
<g id="edge20" class="edge">
<title>adk_llm_auditor_QualityScorer_aggregate&#45;&gt;router_llm_auditor_line_65_if</title>
<path fill="none" stroke="black" d="M660.88,-923.16C660.88,-915.58 660.88,-906.45 660.88,-897.89"/>
<polygon fill="black" stroke="black" points="664.38,-897.89 660.88,-887.89 657.38,-897.89 664.38,-897.89"/>
</g>
<!-- completeness_scorer -->
<g id="node4" class="node">
<title>completeness_scorer</title>
<polygon fill="lightblue" stroke="black" points="733.38,-1105.35 588.38,-1105.35 588.38,-1069.35 733.38,-1069.35 733.38,-1105.35"/>
<text xml:space="preserve" text-anchor="middle" x="660.88" y="-1081.55" font-family="Helvetica,sans-Serif" font-size="14.00">completeness_scorer</text>
</g>
<!-- completeness_scorer&#45;&gt;fanin_llm_auditor_line_56 -->
<g id="edge24" class="edge">
<title>completeness_scorer&#45;&gt;fanin_llm_auditor_line_56</title>
<path fill="none" stroke="black" d="M660.88,-1069.16C660.88,-1061.58 660.88,-1052.45 660.88,-1043.89"/>
<polygon fill="black" stroke="black" points="664.38,-1043.89 660.88,-1033.89 657.38,-1043.89 664.38,-1043.89"/>
</g>
<!-- critique -->
<g id="node5" class="node">
<title>critique</title>
<polygon fill="lightblue" stroke="black" points="947.62,-569.85 888.12,-569.85 888.12,-533.85 947.62,-533.85 947.62,-569.85"/>
<text xml:space="preserve" text-anchor="middle" x="917.88" y="-546.05" font-family="Helvetica,sans-Serif" font-size="14.00">critique</text>
</g>
<!-- deep_reviser -->
<g id="node6" class="node">
<title>deep_reviser</title>
<polygon fill="lightblue" stroke="black" points="929.88,-496.85 835.88,-496.85 835.88,-460.85 929.88,-460.85 929.88,-496.85"/>
<text xml:space="preserve" text-anchor="middle" x="882.88" y="-473.05" font-family="Helvetica,sans-Serif" font-size="14.00">deep_reviser</text>
</g>
<!-- critique&#45;&gt;deep_reviser -->
<g id="edge9" class="edge">
<title>critique&#45;&gt;deep_reviser</title>
<path fill="none" stroke="black" d="M909.4,-533.66C905.45,-525.64 900.64,-515.9 896.22,-506.92"/>
<polygon fill="black" stroke="black" points="899.5,-505.66 891.94,-498.24 893.22,-508.75 899.5,-505.66"/>
</g>
<!-- reviser -->
<g id="node13" class="node">
<title>reviser</title>
<polygon fill="lightblue" stroke="black" points="1004.12,-496.85 947.62,-496.85 947.62,-460.85 1004.12,-460.85 1004.12,-496.85"/>
<text xml:space="preserve" text-anchor="middle" x="975.88" y="-473.05" font-family="Helvetica,sans-Serif" font-size="14.00">reviser</text>
</g>
<!-- critique&#45;&gt;reviser -->
<g id="edge6" class="edge">
<title>critique&#45;&gt;reviser</title>
<path fill="none" stroke="black" d="M931.92,-533.66C938.75,-525.29 947.12,-515.05 954.72,-505.75"/>
<polygon fill="black" stroke="black" points="957.39,-508.01 961.01,-498.05 951.97,-503.58 957.39,-508.01"/>
</g>
<!-- router_llm_auditor_line_83_if -->
<g id="node26" class="node">
<title>router_llm_auditor_line_83_if</title>
<polygon fill="wheat" stroke="black" points="1031.25,-423.85 840.5,-423.85 840.5,-387.85 1031.25,-387.85 1031.25,-423.85"/>
<text xml:space="preserve" text-anchor="middle" x="935.88" y="-400.05" font-family="Helvetica,sans-Serif" font-size="14.00">router_llm_auditor_line_83_if</text>
</g>
<!-- deep_reviser&#45;&gt;router_llm_auditor_line_83_if -->
<g id="edge10" class="edge">
<title>deep_reviser&#45;&gt;router_llm_auditor_line_83_if</title>
<path fill="none" stroke="black" d="M895.7,-460.66C901.89,-452.38 909.44,-442.26 916.32,-433.04"/>
<polygon fill="black" stroke="black" points="919.08,-435.2 922.26,-425.09 913.47,-431.01 919.08,-435.2"/>
</g>
<!-- router_llm_auditor_line_41_if -->
<g id="node14" class="node">
<title>router_llm_auditor_line_41_if</title>
<polygon fill="wheat" stroke="black" points="265.25,-1748.85 74.5,-1748.85 74.5,-1712.85 265.25,-1712.85 265.25,-1748.85"/>
<text xml:space="preserve" text-anchor="middle" x="169.88" y="-1725.05" font-family="Helvetica,sans-Serif" font-size="14.00">router_llm_auditor_line_41_if</text>
</g>
<!-- extract_claims&#45;&gt;router_llm_auditor_line_41_if -->
<g id="edge2" class="edge">
<title>extract_claims&#45;&gt;router_llm_auditor_line_41_if</title>
<path fill="none" stroke="black" d="M169.88,-1785.66C169.88,-1778.08 169.88,-1768.95 169.88,-1760.39"/>
<polygon fill="black" stroke="black" points="173.38,-1760.39 169.88,-1750.39 166.38,-1760.39 173.38,-1760.39"/>
</g>
<!-- fallback_generate -->
<g id="node8" class="node">
<title>fallback_generate</title>
<polygon fill="lightblue" stroke="black" points="1153.12,-1159.35 1030.62,-1159.35 1030.62,-1123.35 1153.12,-1123.35 1153.12,-1159.35"/>
<text xml:space="preserve" text-anchor="middle" x="1091.88" y="-1135.55" font-family="Helvetica,sans-Serif" font-size="14.00">fallback_generate</text>
</g>
<!-- __end__ -->
<g id="node30" class="node">
<title>__end__</title>
<ellipse fill="black" stroke="black" cx="714.88" cy="-14.8" rx="10.8" ry="10.8"/>
<ellipse fill="none" stroke="black" cx="714.88" cy="-14.8" rx="14.8" ry="14.8"/>
</g>
<!-- fallback_generate&#45;&gt;__end__ -->
<g id="edge35" class="edge">
<title>fallback_generate&#45;&gt;__end__</title>
<path fill="none" stroke="black" d="M1153.59,-1132.65C1201.16,-1122.86 1258.88,-1100.79 1258.88,-1051.35 1258.88,-1051.35 1258.88,-1051.35 1258.88,-83.6 1258.88,-30.79 849.98,-18.59 741.19,-16.28"/>
<polygon fill="black" stroke="black" points="741.57,-12.78 731.51,-16.08 741.43,-19.78 741.57,-12.78"/>
</g>
<!-- fanin_llm_auditor_line_56&#45;&gt;adk_llm_auditor_QualityScorer_aggregate -->
<g id="edge19" class="edge">
<title>fanin_llm_auditor_line_56&#45;&gt;adk_llm_auditor_QualityScorer_aggregate</title>
<path fill="none" stroke="black" d="M660.88,-996.16C660.88,-988.58 660.88,-979.45 660.88,-970.89"/>
<polygon fill="black" stroke="black" points="664.38,-970.89 660.88,-960.89 657.38,-970.89 664.38,-970.89"/>
</g>
<!-- fanout_llm_auditor_line_56 -->
<g id="node10" class="node">
<title>fanout_llm_auditor_line_56</title>
<polygon fill="wheat" stroke="black" points="750.25,-1213.35 571.5,-1213.35 571.5,-1177.35 750.25,-1177.35 750.25,-1213.35"/>
<text xml:space="preserve" text-anchor="middle" x="660.88" y="-1189.55" font-family="Helvetica,sans-Serif" font-size="14.00">fanout_llm_auditor_line_56</text>
</g>
<!-- fanout_llm_auditor_line_56&#45;&gt;accuracy_scorer -->
<g id="edge21" class="edge">
<title>fanout_llm_auditor_line_56&#45;&gt;accuracy_scorer</title>
<path fill="none" stroke="black" d="M636.77,-1177.08C612.15,-1159.45 573.74,-1131.94 546.21,-1112.23"/>
<polygon fill="black" stroke="black" points="548.37,-1109.47 538.2,-1106.49 544.3,-1115.16 548.37,-1109.47"/>
</g>
<!-- fanout_llm_auditor_line_56&#45;&gt;completeness_scorer -->
<g id="edge23" class="edge">
<title>fanout_llm_auditor_line_56&#45;&gt;completeness_scorer</title>
<path fill="none" stroke="black" d="M660.88,-1177.32C660.88,-1161.11 660.88,-1136.41 660.88,-1117.14"/>
<polygon fill="black" stroke="black" points="664.38,-1117.2 660.88,-1107.2 657.38,-1117.2 664.38,-1117.2"/>
</g>
<!-- fanout_llm_auditor_line_56&#45;&gt;fanin_llm_auditor_line_56 -->
<g id="edge18" class="edge">
<title>fanout_llm_auditor_line_56&#45;&gt;fanin_llm_auditor_line_56</title>
<path fill="none" stroke="black" d="M684.73,-1176.95C704.53,-1160.9 731.26,-1135.1 742.88,-1105.35 748.69,-1090.45 750.46,-1083.44 742.88,-1069.35 736.05,-1056.68 724.81,-1046.49 712.8,-1038.53"/>
<polygon fill="black" stroke="black" points="714.74,-1035.61 704.37,-1033.4 711.1,-1041.59 714.74,-1035.61"/>
<text xml:space="preserve" text-anchor="middle" x="768.18" y="-1081.17" font-family="Times,serif" font-size="14.00">fanout</text>
</g>
<!-- finalize -->
<g id="node11" class="node">
<title>finalize</title>
<polygon fill="lightblue" stroke="black" points="827.88,-102.6 769.88,-102.6 769.88,-66.6 827.88,-66.6 827.88,-102.6"/>
<text xml:space="preserve" text-anchor="middle" x="798.88" y="-78.8" font-family="Helvetica,sans-Serif" font-size="14.00">finalize</text>
</g>
<!-- finalize&#45;&gt;__end__ -->
<g id="edge36" class="edge">
<title>finalize&#45;&gt;__end__</title>
<path fill="none" stroke="black" d="M777.24,-66.14C764.23,-55.63 747.77,-42.35 735.03,-32.07"/>
<polygon fill="black" stroke="black" points="737.28,-29.39 727.31,-25.83 732.89,-34.84 737.28,-29.39"/>
</g>
<!-- llm_generate -->
<g id="node12" class="node">
<title>llm_generate</title>
<polygon fill="lightblue" stroke="black" points="634.25,-1372.6 539.5,-1372.6 539.5,-1336.6 634.25,-1336.6 634.25,-1372.6"/>
<text xml:space="preserve" text-anchor="middle" x="586.88" y="-1348.8" font-family="Helvetica,sans-Serif" font-size="14.00">llm_generate</text>
</g>
<!-- router_llm_auditor_line_50_try_exit_0 -->
<g id="node20" class="node">
<title>router_llm_auditor_line_50_try_exit_0</title>
<polygon fill="wheat" stroke="black" points="734.12,-1299.6 491.62,-1299.6 491.62,-1263.6 734.12,-1263.6 734.12,-1299.6"/>
<text xml:space="preserve" text-anchor="middle" x="612.88" y="-1275.8" font-family="Helvetica,sans-Serif" font-size="14.00">router_llm_auditor_line_50_try_exit_0</text>
</g>
<!-- llm_generate&#45;&gt;router_llm_auditor_line_50_try_exit_0 -->
<g id="edge26" class="edge">
<title>llm_generate&#45;&gt;router_llm_auditor_line_50_try_exit_0</title>
<path fill="none" stroke="black" d="M593.17,-1336.41C596.04,-1328.56 599.52,-1319.07 602.75,-1310.26"/>
<polygon fill="black" stroke="black" points="605.97,-1311.64 606.12,-1301.05 599.39,-1309.24 605.97,-1311.64"/>
</g>
<!-- reviser&#45;&gt;router_llm_auditor_line_83_if -->
<g id="edge7" class="edge">
<title>reviser&#45;&gt;router_llm_auditor_line_83_if</title>
<path fill="none" stroke="black" d="M966.19,-460.66C961.62,-452.55 956.06,-442.69 950.96,-433.63"/>
<polygon fill="black" stroke="black" points="954.17,-432.19 946.21,-425.2 948.07,-435.63 954.17,-432.19"/>
</g>
<!-- router_llm_auditor_line_42_seq -->
<g id="node15" class="node">
<title>router_llm_auditor_line_42_seq</title>
<polygon fill="wheat" stroke="black" points="205.75,-1608.6 0,-1608.6 0,-1554.6 205.75,-1554.6 205.75,-1608.6"/>
<text xml:space="preserve" text-anchor="middle" x="102.88" y="-1591.3" font-family="Helvetica,sans-Serif" font-size="14.00">router_llm_auditor_line_42_seq</text>
<text xml:space="preserve" text-anchor="middle" x="102.88" y="-1560.3" font-family="Helvetica,sans-Serif" font-size="14.00">p[&#39;status&#39;] = &#39;no_claims&#39;</text>
</g>
<!-- router_llm_auditor_line_41_if&#45;&gt;router_llm_auditor_line_42_seq -->
<g id="edge32" class="edge">
<title>router_llm_auditor_line_41_if&#45;&gt;router_llm_auditor_line_42_seq</title>
<path fill="none" stroke="black" d="M120.88,-1712.4C113.81,-1707.78 107.47,-1702.01 103.12,-1694.85 89.64,-1672.61 90.15,-1643.05 93.72,-1619.85"/>
<polygon fill="black" stroke="black" points="97.13,-1620.66 95.47,-1610.19 90.25,-1619.41 97.13,-1620.66"/>
<text xml:space="preserve" text-anchor="middle" x="159" y="-1681.55" font-family="Times,serif" font-size="14.00">not p.get(&#39;claims&#39;)</text>
</g>
<!-- router_llm_auditor_line_46_loop_back_0 -->
<g id="node16" class="node">
<title>router_llm_auditor_line_46_loop_back_0</title>
<polygon fill="wheat" stroke="black" points="391.12,-1662.6 130.62,-1662.6 130.62,-1626.6 391.12,-1626.6 391.12,-1662.6"/>
<text xml:space="preserve" text-anchor="middle" x="260.88" y="-1638.8" font-family="Helvetica,sans-Serif" font-size="14.00">router_llm_auditor_line_46_loop_back_0</text>
</g>
<!-- router_llm_auditor_line_41_if&#45;&gt;router_llm_auditor_line_46_loop_back_0 -->
<g id="edge33" class="edge">
<title>router_llm_auditor_line_41_if&#45;&gt;router_llm_auditor_line_46_loop_back_0</title>
<path fill="none" stroke="black" d="M196.73,-1712.45C204.19,-1707.15 212.1,-1701.07 218.88,-1694.85 226.49,-1687.86 234.06,-1679.53 240.63,-1671.73"/>
<polygon fill="black" stroke="black" points="243.25,-1674.06 246.87,-1664.1 237.83,-1669.63 243.25,-1674.06"/>
<text xml:space="preserve" text-anchor="middle" x="306.84" y="-1681.55" font-family="Times,serif" font-size="14.00">not (not p.get(&#39;claims&#39;))</text>
</g>
<!-- router_llm_auditor_line_42_seq&#45;&gt;__end__ -->
<g id="edge37" class="edge">
<title>router_llm_auditor_line_42_seq&#45;&gt;__end__</title>
<path fill="none" stroke="black" d="M103.23,-1554.34C103.52,-1530.83 103.88,-1495.41 103.88,-1464.6 103.88,-1464.6 103.88,-1464.6 103.88,-83.6 103.88,-23.87 571.02,-16.76 688.38,-15.91"/>
<polygon fill="black" stroke="black" points="688.28,-19.41 698.26,-15.85 688.24,-12.41 688.28,-19.41"/>
</g>
<!-- router_llm_auditor_line_47_seq -->
<g id="node17" class="node">
<title>router_llm_auditor_line_47_seq</title>
<polygon fill="wheat" stroke="black" points="494.75,-1536.6 289,-1536.6 289,-1482.6 494.75,-1482.6 494.75,-1536.6"/>
<text xml:space="preserve" text-anchor="middle" x="391.88" y="-1519.3" font-family="Helvetica,sans-Serif" font-size="14.00">router_llm_auditor_line_47_seq</text>
<text xml:space="preserve" text-anchor="middle" x="391.88" y="-1488.3" font-family="Helvetica,sans-Serif" font-size="14.00">p[&#39;iteration&#39;] += 1</text>
</g>
<!-- router_llm_auditor_line_46_loop_back_0&#45;&gt;router_llm_auditor_line_47_seq -->
<g id="edge31" class="edge">
<title>router_llm_auditor_line_46_loop_back_0&#45;&gt;router_llm_auditor_line_47_seq</title>
<path fill="none" stroke="black" d="M278,-1626.21C298.28,-1605.63 332.53,-1570.85 358.18,-1544.81"/>
<polygon fill="black" stroke="black" points="360.59,-1547.35 365.12,-1537.77 355.61,-1542.43 360.59,-1547.35"/>
</g>
<!-- router_llm_auditor_line_50_try_enter_0 -->
<g id="node19" class="node">
<title>router_llm_auditor_line_50_try_enter_0</title>
<polygon fill="wheat" stroke="black" points="518,-1445.6 265.75,-1445.6 265.75,-1409.6 518,-1409.6 518,-1445.6"/>
<text xml:space="preserve" text-anchor="middle" x="391.88" y="-1421.8" font-family="Helvetica,sans-Serif" font-size="14.00">router_llm_auditor_line_50_try_enter_0</text>
</g>
<!-- router_llm_auditor_line_47_seq&#45;&gt;router_llm_auditor_line_50_try_enter_0 -->
<g id="edge30" class="edge">
<title>router_llm_auditor_line_47_seq&#45;&gt;router_llm_auditor_line_50_try_enter_0</title>
<path fill="none" stroke="black" d="M391.88,-1482.41C391.88,-1474.32 391.88,-1465.38 391.88,-1457.15"/>
<polygon fill="black" stroke="black" points="395.38,-1457.29 391.88,-1447.29 388.38,-1457.29 395.38,-1457.29"/>
</g>
<!-- router_llm_auditor_line_50_except_dispatch_0 -->
<g id="node18" class="node">
<title>router_llm_auditor_line_50_except_dispatch_0</title>
<polygon fill="wheat" stroke="black" points="1084.12,-1299.6 787.62,-1299.6 787.62,-1263.6 1084.12,-1263.6 1084.12,-1299.6"/>
<text xml:space="preserve" text-anchor="middle" x="935.88" y="-1275.8" font-family="Helvetica,sans-Serif" font-size="14.00">router_llm_auditor_line_50_except_dispatch_0</text>
</g>
<!-- router_llm_auditor_line_50_except_dispatch_0&#45;&gt;fallback_generate -->
<g id="edge29" class="edge">
<title>router_llm_auditor_line_50_except_dispatch_0&#45;&gt;fallback_generate</title>
<path fill="none" stroke="black" d="M955.32,-1263.37C982.64,-1239.15 1032.56,-1194.92 1063.88,-1167.16"/>
<polygon fill="black" stroke="black" points="1065.89,-1170.05 1071.06,-1160.8 1061.25,-1164.81 1065.89,-1170.05"/>
<text xml:space="preserve" text-anchor="middle" x="1005.79" y="-1232.3" font-family="Times,serif" font-size="14.00">True</text>
</g>
<!-- router_llm_auditor_line_50_except_dispatch_0&#45;&gt;fanout_llm_auditor_line_56 -->
<g id="edge28" class="edge">
<title>router_llm_auditor_line_50_except_dispatch_0&#45;&gt;fanout_llm_auditor_line_56</title>
<path fill="none" stroke="black" d="M878.89,-1263.14C835.2,-1249.76 774.76,-1231.24 728.59,-1217.1"/>
<polygon fill="black" stroke="black" points="729.82,-1213.81 719.23,-1214.23 727.77,-1220.5 729.82,-1213.81"/>
</g>
<!-- router_llm_auditor_line_50_try_enter_0&#45;&gt;llm_generate -->
<g id="edge25" class="edge">
<title>router_llm_auditor_line_50_try_enter_0&#45;&gt;llm_generate</title>
<path fill="none" stroke="black" d="M439.58,-1409.23C466.47,-1399.44 500.28,-1387.13 528.72,-1376.78"/>
<polygon fill="black" stroke="black" points="529.71,-1380.14 537.91,-1373.43 527.31,-1373.56 529.71,-1380.14"/>
</g>
<!-- router_llm_auditor_line_50_try_enter_0&#45;&gt;router_llm_auditor_line_46_loop_back_0 -->
<g id="edge34" class="edge">
<title>router_llm_auditor_line_50_try_enter_0&#45;&gt;router_llm_auditor_line_46_loop_back_0</title>
<path fill="none" stroke="black" d="M328.83,-1446C310.28,-1454.16 291.78,-1465.9 279.88,-1482.6 251.95,-1521.75 252.84,-1580.36 256.52,-1615.01"/>
<polygon fill="black" stroke="black" points="253.01,-1615.2 257.71,-1624.7 259.96,-1614.34 253.01,-1615.2"/>
</g>
<!-- router_llm_auditor_line_50_try_exit_0&#45;&gt;fanout_llm_auditor_line_56 -->
<g id="edge27" class="edge">
<title>router_llm_auditor_line_50_try_exit_0&#45;&gt;fanout_llm_auditor_line_56</title>
<path fill="none" stroke="black" d="M622.82,-1263.14C629.32,-1251.73 637.94,-1236.6 645.34,-1223.62"/>
<polygon fill="black" stroke="black" points="648.28,-1225.52 650.19,-1215.1 642.2,-1222.06 648.28,-1225.52"/>
</g>
<!-- router_llm_auditor_line_66_seq -->
<g id="node22" class="node">
<title>router_llm_auditor_line_66_seq</title>
<polygon fill="wheat" stroke="black" points="374.75,-800.1 133,-800.1 133,-746.1 374.75,-746.1 374.75,-800.1"/>
<text xml:space="preserve" text-anchor="middle" x="253.88" y="-782.8" font-family="Helvetica,sans-Serif" font-size="14.00">router_llm_auditor_line_66_seq</text>
<text xml:space="preserve" text-anchor="middle" x="253.88" y="-751.8" font-family="Helvetica,sans-Serif" font-size="14.00">p[&#39;prev_score&#39;] = p[&#39;aggregate_score&#39;]</text>
</g>
<!-- router_llm_auditor_line_65_if&#45;&gt;router_llm_auditor_line_66_seq -->
<g id="edge16" class="edge">
<title>router_llm_auditor_line_65_if&#45;&gt;router_llm_auditor_line_66_seq</title>
<path fill="none" stroke="black" d="M565.12,-865.85C450.63,-863.04 271.71,-855.04 250.88,-832.35 245.74,-826.75 243.87,-819.43 243.79,-811.88"/>
<polygon fill="black" stroke="black" points="247.28,-812.22 244.73,-801.94 240.31,-811.57 247.28,-812.22"/>
<text xml:space="preserve" text-anchor="middle" x="483.38" y="-819.05" font-family="Times,serif" font-size="14.00">p[&#39;aggregate_score&#39;] &gt; p.get(&#39;prev_score&#39;, 0) and p[&#39;aggregate_score&#39;] &lt; 70</text>
</g>
<!-- router_llm_auditor_line_70_if -->
<g id="node23" class="node">
<title>router_llm_auditor_line_70_if</title>
<polygon fill="wheat" stroke="black" points="837.25,-791.1 646.5,-791.1 646.5,-755.1 837.25,-755.1 837.25,-791.1"/>
<text xml:space="preserve" text-anchor="middle" x="741.88" y="-767.3" font-family="Helvetica,sans-Serif" font-size="14.00">router_llm_auditor_line_70_if</text>
</g>
<!-- router_llm_auditor_line_65_if&#45;&gt;router_llm_auditor_line_70_if -->
<g id="edge17" class="edge">
<title>router_llm_auditor_line_65_if&#45;&gt;router_llm_auditor_line_70_if</title>
<path fill="none" stroke="black" d="M699.04,-849.86C706.69,-845.03 714.13,-839.19 719.88,-832.35 727.04,-823.81 732.01,-812.69 735.38,-802.46"/>
<polygon fill="black" stroke="black" points="738.72,-803.5 738.12,-792.93 732,-801.57 738.72,-803.5"/>
<text xml:space="preserve" text-anchor="middle" x="979.87" y="-819.05" font-family="Times,serif" font-size="14.00">not (p[&#39;aggregate_score&#39;] &gt; p.get(&#39;prev_score&#39;, 0) and p[&#39;aggregate_score&#39;] &lt; 70)</text>
</g>
<!-- router_llm_auditor_line_66_seq&#45;&gt;router_llm_auditor_line_46_loop_back_0 -->
<g id="edge4" class="edge">
<title>router_llm_auditor_line_66_seq&#45;&gt;router_llm_auditor_line_46_loop_back_0</title>
<path fill="none" stroke="black" d="M239.11,-800.56C230.33,-818.77 220.88,-843.82 220.88,-867.35 220.88,-1510.6 220.88,-1510.6 220.88,-1510.6 220.88,-1548.37 235.85,-1589.7 247.47,-1616.11"/>
<polygon fill="black" stroke="black" points="244.23,-1617.43 251.57,-1625.08 250.6,-1614.53 244.23,-1617.43"/>
</g>
<!-- router_llm_auditor_line_71_seq -->
<g id="node24" class="node">
<title>router_llm_auditor_line_71_seq</title>
<polygon fill="wheat" stroke="black" points="681.75,-641.85 476,-641.85 476,-587.85 681.75,-587.85 681.75,-641.85"/>
<text xml:space="preserve" text-anchor="middle" x="578.88" y="-624.55" font-family="Helvetica,sans-Serif" font-size="14.00">router_llm_auditor_line_71_seq</text>
<text xml:space="preserve" text-anchor="middle" x="578.88" y="-593.55" font-family="Helvetica,sans-Serif" font-size="14.00">p[&#39;status&#39;] = &#39;approved&#39;</text>
</g>
<!-- router_llm_auditor_line_70_if&#45;&gt;router_llm_auditor_line_71_seq -->
<g id="edge14" class="edge">
<title>router_llm_auditor_line_70_if&#45;&gt;router_llm_auditor_line_71_seq</title>
<path fill="none" stroke="black" d="M646.39,-755.2C618.26,-748.21 592.65,-739.13 583.88,-728.1 567.39,-707.37 566.98,-677.05 570.24,-653.15"/>
<polygon fill="black" stroke="black" points="573.66,-653.93 571.83,-643.49 566.75,-652.79 573.66,-653.93"/>
<text xml:space="preserve" text-anchor="middle" x="667.88" y="-714.8" font-family="Times,serif" font-size="14.00">p[&#39;aggregate_score&#39;] &gt;= 90</text>
</g>
<!-- router_llm_auditor_line_73_if -->
<g id="node25" class="node">
<title>router_llm_auditor_line_73_if</title>
<polygon fill="wheat" stroke="black" points="865.25,-695.85 674.5,-695.85 674.5,-659.85 865.25,-659.85 865.25,-695.85"/>
<text xml:space="preserve" text-anchor="middle" x="769.88" y="-672.05" font-family="Helvetica,sans-Serif" font-size="14.00">router_llm_auditor_line_73_if</text>
</g>
<!-- router_llm_auditor_line_70_if&#45;&gt;router_llm_auditor_line_73_if -->
<g id="edge15" class="edge">
<title>router_llm_auditor_line_70_if&#45;&gt;router_llm_auditor_line_73_if</title>
<path fill="none" stroke="black" d="M747.01,-755C751.05,-741.54 756.76,-722.52 761.47,-706.85"/>
<polygon fill="black" stroke="black" points="764.72,-708.19 764.24,-697.61 758.01,-706.18 764.72,-708.19"/>
<text xml:space="preserve" text-anchor="middle" x="861.58" y="-714.8" font-family="Times,serif" font-size="14.00">not (p[&#39;aggregate_score&#39;] &gt;= 90)</text>
</g>
<!-- router_llm_auditor_line_71_seq&#45;&gt;__end__ -->
<g id="edge38" class="edge">
<title>router_llm_auditor_line_71_seq&#45;&gt;__end__</title>
<path fill="none" stroke="black" d="M578.88,-587.65C578.88,-567.91 578.88,-540.18 578.88,-515.85 578.88,-515.85 578.88,-515.85 578.88,-83.6 578.88,-35.17 648.81,-21.33 688.38,-17.38"/>
<polygon fill="black" stroke="black" points="688.62,-20.87 698.29,-16.55 688.04,-13.9 688.62,-20.87"/>
</g>
<!-- router_llm_auditor_line_73_if&#45;&gt;critique -->
<g id="edge5" class="edge">
<title>router_llm_auditor_line_73_if&#45;&gt;critique</title>
<path fill="none" stroke="black" d="M753.07,-659.67C748.93,-654.38 745.05,-648.24 742.88,-641.85 735.13,-619.13 727.66,-606.41 742.88,-587.85 759.44,-567.64 830.17,-558.87 876.49,-555.23"/>
<polygon fill="black" stroke="black" points="876.46,-558.74 886.18,-554.53 875.95,-551.76 876.46,-558.74"/>
<text xml:space="preserve" text-anchor="middle" x="826.88" y="-608.68" font-family="Times,serif" font-size="14.00">p[&#39;aggregate_score&#39;] &gt;= 70</text>
</g>
<!-- router_llm_auditor_line_73_if&#45;&gt;critique -->
<g id="edge8" class="edge">
<title>router_llm_auditor_line_73_if&#45;&gt;critique</title>
<path fill="none" stroke="black" d="M865.65,-661.72C886.28,-656.56 903.99,-649.98 910.88,-641.85 924.82,-625.4 925.67,-600.54 923.55,-581.28"/>
<polygon fill="black" stroke="black" points="927.05,-581.02 922.15,-571.63 920.12,-582.02 927.05,-581.02"/>
<text xml:space="preserve" text-anchor="middle" x="1026.8" y="-608.68" font-family="Times,serif" font-size="14.00">not (p[&#39;aggregate_score&#39;] &gt;= 70)</text>
</g>
<!-- router_llm_auditor_line_84_seq -->
<g id="node27" class="node">
<title>router_llm_auditor_line_84_seq</title>
<polygon fill="wheat" stroke="black" points="1024.75,-337.6 819,-337.6 819,-283.6 1024.75,-283.6 1024.75,-337.6"/>
<text xml:space="preserve" text-anchor="middle" x="921.88" y="-320.3" font-family="Helvetica,sans-Serif" font-size="14.00">router_llm_auditor_line_84_seq</text>
<text xml:space="preserve" text-anchor="middle" x="921.88" y="-289.3" font-family="Helvetica,sans-Serif" font-size="14.00">p[&#39;status&#39;] = &#39;max_iterations&#39;</text>
</g>
<!-- router_llm_auditor_line_83_if&#45;&gt;router_llm_auditor_line_84_seq -->
<g id="edge12" class="edge">
<title>router_llm_auditor_line_83_if&#45;&gt;router_llm_auditor_line_84_seq</title>
<path fill="none" stroke="black" d="M933.31,-387.75C931.68,-376.93 929.52,-362.51 927.51,-349.13"/>
<polygon fill="black" stroke="black" points="930.97,-348.62 926.03,-339.25 924.05,-349.66 930.97,-348.62"/>
<text xml:space="preserve" text-anchor="middle" x="1061.79" y="-356.55" font-family="Times,serif" font-size="14.00">p[&#39;iteration&#39;] &gt;= p.get(&#39;max_iterations&#39;, 5)</text>
</g>
<!-- router_llm_auditor_line_87_seq -->
<g id="node28" class="node">
<title>router_llm_auditor_line_87_seq</title>
<polygon fill="wheat" stroke="black" points="835.75,-265.6 594,-265.6 594,-211.6 835.75,-211.6 835.75,-265.6"/>
<text xml:space="preserve" text-anchor="middle" x="714.88" y="-248.3" font-family="Helvetica,sans-Serif" font-size="14.00">router_llm_auditor_line_87_seq</text>
<text xml:space="preserve" text-anchor="middle" x="714.88" y="-217.3" font-family="Helvetica,sans-Serif" font-size="14.00">p[&#39;prev_score&#39;] = p[&#39;aggregate_score&#39;]</text>
</g>
<!-- router_llm_auditor_line_83_if&#45;&gt;router_llm_auditor_line_87_seq -->
<g id="edge13" class="edge">
<title>router_llm_auditor_line_83_if&#45;&gt;router_llm_auditor_line_87_seq</title>
<path fill="none" stroke="black" d="M840.15,-400.39C754.36,-395.38 639.87,-385.79 625.62,-369.85 598.46,-339.45 632.98,-300.42 666.67,-273.04"/>
<polygon fill="black" stroke="black" points="668.75,-275.86 674.45,-266.93 664.43,-270.35 668.75,-275.86"/>
<text xml:space="preserve" text-anchor="middle" x="775.25" y="-356.55" font-family="Times,serif" font-size="14.00">not (p[&#39;iteration&#39;] &gt;= p.get(&#39;max_iterations&#39;, 5))</text>
</g>
<!-- router_llm_auditor_line_90_seq -->
<g id="node29" class="node">
<title>router_llm_auditor_line_90_seq</title>
<polygon fill="wheat" stroke="black" points="988.75,-193.6 783,-193.6 783,-139.6 988.75,-139.6 988.75,-193.6"/>
<text xml:space="preserve" text-anchor="middle" x="885.88" y="-176.3" font-family="Helvetica,sans-Serif" font-size="14.00">router_llm_auditor_line_90_seq</text>
<text xml:space="preserve" text-anchor="middle" x="885.88" y="-145.3" font-family="Helvetica,sans-Serif" font-size="14.00">p[&#39;partial&#39;] = False</text>
</g>
<!-- router_llm_auditor_line_84_seq&#45;&gt;router_llm_auditor_line_90_seq -->
<g id="edge11" class="edge">
<title>router_llm_auditor_line_84_seq&#45;&gt;router_llm_auditor_line_90_seq</title>
<path fill="none" stroke="black" d="M915.19,-283.22C909.61,-261.21 901.58,-229.56 895.34,-204.94"/>
<polygon fill="black" stroke="black" points="898.75,-204.14 892.9,-195.3 891.96,-205.86 898.75,-204.14"/>
</g>
<!-- router_llm_auditor_line_87_seq&#45;&gt;__end__ -->
<g id="edge39" class="edge">
<title>router_llm_auditor_line_87_seq&#45;&gt;__end__</title>
<path fill="none" stroke="black" d="M714.88,-211.29C714.88,-168.35 714.88,-83.76 714.88,-41.33"/>
<polygon fill="black" stroke="black" points="718.38,-41.36 714.88,-31.36 711.38,-41.36 718.38,-41.36"/>
</g>
<!-- router_llm_auditor_line_90_seq&#45;&gt;finalize -->
<g id="edge3" class="edge">
<title>router_llm_auditor_line_90_seq&#45;&gt;finalize</title>
<path fill="none" stroke="black" d="M857.39,-139.41C847.35,-130.17 836.09,-119.82 826.15,-110.68"/>
<polygon fill="black" stroke="black" points="828.66,-108.23 818.93,-104.04 823.92,-113.39 828.66,-108.23"/>
</g>
</g>
</svg>
