<?xml version="1.0" encoding="UTF-8" standalone="no"?>
<!DOCTYPE svg PUBLIC "-//W3C//DTD SVG 1.1//EN"
 "http://www.w3.org/Graphics/SVG/1.1/DTD/svg11.dtd">
<!-- Generated by graphviz
 -->
<!-- Title: document_pipeline Pages: 1 -->
<svg width="538pt" height="568pt"
 viewBox="0.00 0.00 538.00 568.00" xmlns="http://www.w3.org/2000/svg" xmlns:xlink="http://www.w3.org/1999/xlink">
<g id="graph0" class="graph" transform="scale(1 1) rotate(0) translate(4 564.25)">
<title>document_pipeline</title>
<polygon fill="white" stroke="none" points="-4,4 -4,-564.25 533.98,-564.25 533.98,4 -4,4"/>
<!-- end_document_pipeline -->
<g id="node1" class="node">
<title>end_document_pipeline</title>
<polygon fill="palegreen" stroke="black" points="160,-560.25 0,-560.25 0,-524.25 160,-524.25 160,-560.25"/>
<text xml:space="preserve" text-anchor="middle" x="80" y="-536.45" font-family="Helvetica,sans-Serif" font-size="14.00">end_document_pipeline</text>
</g>
<!-- language_detector -->
<g id="node2" class="node">
<title>language_detector</title>
<polygon fill="lightblue" stroke="black" points="323.88,-341.25 196.12,-341.25 196.12,-305.25 323.88,-305.25 323.88,-341.25"/>
<text xml:space="preserve" text-anchor="middle" x="260" y="-317.45" font-family="Helvetica,sans-Serif" font-size="14.00">language_detector</text>
</g>
<!-- router_document_pipeline_line_24_if_2 -->
<g id="node5" class="node">
<title>router_document_pipeline_line_24_if_2</title>
<polygon fill="wheat" stroke="black" points="386.5,-268.25 133.5,-268.25 133.5,-232.25 386.5,-232.25 386.5,-268.25"/>
<text xml:space="preserve" text-anchor="middle" x="260" y="-244.45" font-family="Helvetica,sans-Serif" font-size="14.00">router_document_pipeline_line_24_if_2</text>
</g>
<!-- language_detector&#45;&gt;router_document_pipeline_line_24_if_2 -->
<g id="edge9" class="edge">
<title>language_detector&#45;&gt;router_document_pipeline_line_24_if_2</title>
<path fill="none" stroke="black" d="M260,-305.06C260,-297.48 260,-288.35 260,-279.79"/>
<polygon fill="black" stroke="black" points="263.5,-279.79 260,-269.79 256.5,-279.79 263.5,-279.79"/>
</g>
<!-- ocr_extractor -->
<g id="node3" class="node">
<title>ocr_extractor</title>
<polygon fill="lightblue" stroke="black" points="307.38,-414.25 212.62,-414.25 212.62,-378.25 307.38,-378.25 307.38,-414.25"/>
<text xml:space="preserve" text-anchor="middle" x="260" y="-390.45" font-family="Helvetica,sans-Serif" font-size="14.00">ocr_extractor</text>
</g>
<!-- ocr_extractor&#45;&gt;language_detector -->
<g id="edge8" class="edge">
<title>ocr_extractor&#45;&gt;language_detector</title>
<path fill="none" stroke="black" d="M260,-378.06C260,-370.48 260,-361.35 260,-352.79"/>
<polygon fill="black" stroke="black" points="263.5,-352.79 260,-342.79 256.5,-352.79 263.5,-352.79"/>
</g>
<!-- router_document_pipeline_line_18_seq_3 -->
<g id="node4" class="node">
<title>router_document_pipeline_line_18_seq_3</title>
<polygon fill="wheat" stroke="black" points="394,-487.25 126,-487.25 126,-451.25 394,-451.25 394,-487.25"/>
<text xml:space="preserve" text-anchor="middle" x="260" y="-463.45" font-family="Helvetica,sans-Serif" font-size="14.00">router_document_pipeline_line_18_seq_3</text>
</g>
<!-- router_document_pipeline_line_18_seq_3&#45;&gt;ocr_extractor -->
<g id="edge7" class="edge">
<title>router_document_pipeline_line_18_seq_3&#45;&gt;ocr_extractor</title>
<path fill="none" stroke="black" d="M260,-451.06C260,-443.48 260,-434.35 260,-425.79"/>
<polygon fill="black" stroke="black" points="263.5,-425.79 260,-415.79 256.5,-425.79 263.5,-425.79"/>
</g>
<!-- sentiment_analyzer -->
<g id="node7" class="node">
<title>sentiment_analyzer</title>
<polygon fill="lightblue" stroke="black" points="322.88,-109 189.12,-109 189.12,-73 322.88,-73 322.88,-109"/>
<text xml:space="preserve" text-anchor="middle" x="256" y="-85.2" font-family="Helvetica,sans-Serif" font-size="14.00">sentiment_analyzer</text>
</g>
<!-- router_document_pipeline_line_24_if_2&#45;&gt;sentiment_analyzer -->
<g id="edge5" class="edge">
<title>router_document_pipeline_line_24_if_2&#45;&gt;sentiment_analyzer</title>
<path fill="none" stroke="black" d="M257.69,-231.87C256.01,-218.32 253.88,-199 253,-182 252.17,-166.02 252.56,-161.99 253,-146 253.23,-137.8 253.65,-128.91 254.11,-120.76"/>
<polygon fill="black" stroke="black" points="257.59,-121.2 254.69,-111.01 250.6,-120.78 257.59,-121.2"/>
<text xml:space="preserve" text-anchor="middle" x="344.5" y="-157.82" font-family="Times,serif" font-size="14.00">not (p.get(&#39;language&#39;) != &#39;en&#39;)</text>
</g>
<!-- translator -->
<g id="node9" class="node">
<title>translator</title>
<polygon fill="lightblue" stroke="black" points="517.12,-182 444.88,-182 444.88,-146 517.12,-146 517.12,-182"/>
<text xml:space="preserve" text-anchor="middle" x="481" y="-158.2" font-family="Helvetica,sans-Serif" font-size="14.00">translator</text>
</g>
<!-- router_document_pipeline_line_24_if_2&#45;&gt;translator -->
<g id="edge2" class="edge">
<title>router_document_pipeline_line_24_if_2&#45;&gt;translator</title>
<path fill="none" stroke="black" d="M305.79,-231.79C343.19,-217.54 395.86,-197.46 433.67,-183.04"/>
<polygon fill="black" stroke="black" points="434.89,-186.32 442.99,-179.49 432.39,-179.78 434.89,-186.32"/>
<text xml:space="preserve" text-anchor="middle" x="456.86" y="-200.95" font-family="Times,serif" font-size="14.00">p.get(&#39;language&#39;) != &#39;en&#39;</text>
</g>
<!-- router_document_pipeline_line_28_seq_1 -->
<g id="node6" class="node">
<title>router_document_pipeline_line_28_seq_1</title>
<polygon fill="wheat" stroke="black" points="390,-36 122,-36 122,0 390,0 390,-36"/>
<text xml:space="preserve" text-anchor="middle" x="256" y="-12.2" font-family="Helvetica,sans-Serif" font-size="14.00">router_document_pipeline_line_28_seq_1</text>
</g>
<!-- sentiment_analyzer&#45;&gt;router_document_pipeline_line_28_seq_1 -->
<g id="edge4" class="edge">
<title>sentiment_analyzer&#45;&gt;router_document_pipeline_line_28_seq_1</title>
<path fill="none" stroke="black" d="M250.12,-72.81C249.32,-65.14 249.07,-55.89 249.38,-47.24"/>
<polygon fill="black" stroke="black" points="252.85,-47.75 250.04,-37.54 245.87,-47.28 252.85,-47.75"/>
</g>
<!-- sentiment_analyzer&#45;&gt;router_document_pipeline_line_28_seq_1 -->
<g id="edge6" class="edge">
<title>sentiment_analyzer&#45;&gt;router_document_pipeline_line_28_seq_1</title>
<path fill="none" stroke="black" d="M261.88,-72.81C262.68,-65.14 262.93,-55.89 262.62,-47.24"/>
<polygon fill="black" stroke="black" points="266.13,-47.28 261.96,-37.54 259.15,-47.75 266.13,-47.28"/>
</g>
<!-- start_document_pipeline -->
<g id="node8" class="node">
<title>start_document_pipeline</title>
<polygon fill="palegreen" stroke="black" points="341.88,-560.25 178.12,-560.25 178.12,-524.25 341.88,-524.25 341.88,-560.25"/>
<text xml:space="preserve" text-anchor="middle" x="260" y="-536.45" font-family="Helvetica,sans-Serif" font-size="14.00">start_document_pipeline</text>
</g>
<!-- start_document_pipeline&#45;&gt;router_document_pipeline_line_18_seq_3 -->
<g id="edge1" class="edge">
<title>start_document_pipeline&#45;&gt;router_document_pipeline_line_18_seq_3</title>
<path fill="none" stroke="black" d="M260,-524.06C260,-516.48 260,-507.35 260,-498.79"/>
<polygon fill="black" stroke="black" points="263.5,-498.79 260,-488.79 256.5,-498.79 263.5,-498.79"/>
</g>
<!-- translator&#45;&gt;sentiment_analyzer -->
<g id="edge3" class="edge">
<title>translator&#45;&gt;sentiment_analyzer</title>
<path fill="none" stroke="black" d="M444.45,-150.44C439.93,-148.92 435.36,-147.41 431,-146 396.08,-134.68 357.07,-122.59 324.75,-112.72"/>
<polygon fill="black" stroke="black" points="326.1,-109.47 315.51,-109.91 324.06,-116.17 326.1,-109.47"/>
</g>
</g>
</svg>
