<?xml version="1.0" encoding="UTF-8" standalone="no"?>
<!DOCTYPE svg PUBLIC "-//W3C//DTD SVG 1.1//EN"
 "http://www.w3.org/Graphics/SVG/1.1/DTD/svg11.dtd">
<!-- Generated by graphviz version 13.0.1 (20250615.1724)
 -->
<!-- Title: text_analysis_flow Pages: 1 -->
<svg width="555pt" height="706pt"
 viewBox="0.00 0.00 555.00 706.00" xmlns="http://www.w3.org/2000/svg" xmlns:xlink="http://www.w3.org/1999/xlink">
<g id="graph0" class="graph" transform="scale(1 1) rotate(0) translate(4 701.85)">
<title>text_analysis_flow</title>
<polygon fill="white" stroke="none" points="-4,4 -4,-701.85 550.86,-701.85 550.86,4 -4,4"/>
<!-- start_text_analysis_flow -->
<g id="node1" class="node">
<title>start_text_analysis_flow</title>
<polygon fill="palegreen" stroke="black" points="222.38,-697.85 63.12,-697.85 63.12,-661.85 222.38,-661.85 222.38,-697.85"/>
<text xml:space="preserve" text-anchor="middle" x="142.75" y="-674.05" font-family="Helvetica,sans-Serif" font-size="14.00">start_text_analysis_flow</text>
</g>
<!-- clean_text -->
<g id="node2" class="node">
<title>clean_text</title>
<polygon fill="lightblue" stroke="black" points="181.5,-624.85 104,-624.85 104,-588.85 181.5,-588.85 181.5,-624.85"/>
<text xml:space="preserve" text-anchor="middle" x="142.75" y="-601.05" font-family="Helvetica,sans-Serif" font-size="14.00">clean_text</text>
</g>
<!-- start_text_analysis_flow&#45;&gt;clean_text -->
<g id="edge1" class="edge">
<title>start_text_analysis_flow&#45;&gt;clean_text</title>
<path fill="none" stroke="black" d="M142.75,-661.66C142.75,-654.08 142.75,-644.95 142.75,-636.39"/>
<polygon fill="black" stroke="black" points="146.25,-636.39 142.75,-626.39 139.25,-636.39 146.25,-636.39"/>
</g>
<!-- tokenize -->
<g id="node10" class="node">
<title>tokenize</title>
<polygon fill="lightblue" stroke="black" points="175.88,-551.85 109.62,-551.85 109.62,-515.85 175.88,-515.85 175.88,-551.85"/>
<text xml:space="preserve" text-anchor="middle" x="142.75" y="-528.05" font-family="Helvetica,sans-Serif" font-size="14.00">tokenize</text>
</g>
<!-- clean_text&#45;&gt;tokenize -->
<g id="edge2" class="edge">
<title>clean_text&#45;&gt;tokenize</title>
<path fill="none" stroke="black" d="M142.75,-588.66C142.75,-581.08 142.75,-571.95 142.75,-563.39"/>
<polygon fill="black" stroke="black" points="146.25,-563.39 142.75,-553.39 139.25,-563.39 146.25,-563.39"/>
</g>
<!-- english_sentiment -->
<g id="node3" class="node">
<title>english_sentiment</title>
<polygon fill="lightblue" stroke="black" points="125.5,-338.6 0,-338.6 0,-302.6 125.5,-302.6 125.5,-338.6"/>
<text xml:space="preserve" text-anchor="middle" x="62.75" y="-314.8" font-family="Helvetica,sans-Serif" font-size="14.00">english_sentiment</text>
</g>
<!-- extract_entities -->
<g id="node4" class="node">
<title>extract_entities</title>
<polygon fill="lightblue" stroke="black" points="275.12,-193.6 168.38,-193.6 168.38,-157.6 275.12,-157.6 275.12,-193.6"/>
<text xml:space="preserve" text-anchor="middle" x="221.75" y="-169.8" font-family="Helvetica,sans-Serif" font-size="14.00">extract_entities</text>
</g>
<!-- english_sentiment&#45;&gt;extract_entities -->
<g id="edge7" class="edge">
<title>english_sentiment&#45;&gt;extract_entities</title>
<path fill="none" stroke="black" d="M61.6,-302.45C61.24,-282.83 63.64,-250.82 80.75,-230.6 99.95,-207.91 129.8,-194.73 157.1,-187.08"/>
<polygon fill="black" stroke="black" points="157.93,-190.48 166.74,-184.6 156.18,-183.7 157.93,-190.48"/>
</g>
<!-- router_text_analysis_flow_line_20_seq_1 -->
<g id="node8" class="node">
<title>router_text_analysis_flow_line_20_seq_1</title>
<polygon fill="wheat" stroke="black" points="353.5,-120.6 90,-120.6 90,-66.6 353.5,-66.6 353.5,-120.6"/>
<text xml:space="preserve" text-anchor="middle" x="221.75" y="-103.3" font-family="Helvetica,sans-Serif" font-size="14.00">router_text_analysis_flow_line_20_seq_1</text>
<text xml:space="preserve" text-anchor="middle" x="221.75" y="-72.3" font-family="Helvetica,sans-Serif" font-size="14.00">p[&#39;extracted&#39;] = True</text>
</g>
<!-- extract_entities&#45;&gt;router_text_analysis_flow_line_20_seq_1 -->
<g id="edge8" class="edge">
<title>extract_entities&#45;&gt;router_text_analysis_flow_line_20_seq_1</title>
<path fill="none" stroke="black" d="M221.75,-157.24C221.75,-149.89 221.75,-141.02 221.75,-132.3"/>
<polygon fill="black" stroke="black" points="225.25,-132.57 221.75,-122.57 218.25,-132.57 225.25,-132.57"/>
</g>
<!-- router_text_analysis_flow_line_11_if_4 -->
<g id="node5" class="node">
<title>router_text_analysis_flow_line_11_if_4</title>
<polygon fill="wheat" stroke="black" points="267,-478.85 18.5,-478.85 18.5,-442.85 267,-442.85 267,-478.85"/>
<text xml:space="preserve" text-anchor="middle" x="142.75" y="-455.05" font-family="Helvetica,sans-Serif" font-size="14.00">router_text_analysis_flow_line_11_if_4</text>
</g>
<!-- router_text_analysis_flow_line_11_if_4&#45;&gt;english_sentiment -->
<g id="edge6" class="edge">
<title>router_text_analysis_flow_line_11_if_4&#45;&gt;english_sentiment</title>
<path fill="none" stroke="black" d="M82.45,-442.51C74.98,-437.93 68.29,-432.14 63.5,-424.85 49.07,-402.88 50.93,-372.2 55.14,-350"/>
<polygon fill="black" stroke="black" points="58.52,-350.94 57.24,-340.43 51.68,-349.44 58.52,-350.94"/>
<text xml:space="preserve" text-anchor="middle" x="129.12" y="-411.55" font-family="Times,serif" font-size="14.00">p[&#39;language&#39;] == &#39;en&#39;</text>
</g>
<!-- router_text_analysis_flow_line_13_if_3 -->
<g id="node6" class="node">
<title>router_text_analysis_flow_line_13_if_3</title>
<polygon fill="wheat" stroke="black" points="346,-392.6 97.5,-392.6 97.5,-356.6 346,-356.6 346,-392.6"/>
<text xml:space="preserve" text-anchor="middle" x="221.75" y="-368.8" font-family="Helvetica,sans-Serif" font-size="14.00">router_text_analysis_flow_line_13_if_3</text>
</g>
<!-- router_text_analysis_flow_line_11_if_4&#45;&gt;router_text_analysis_flow_line_13_if_3 -->
<g id="edge9" class="edge">
<title>router_text_analysis_flow_line_11_if_4&#45;&gt;router_text_analysis_flow_line_13_if_3</title>
<path fill="none" stroke="black" d="M177.43,-442.52C185.12,-437.56 192.75,-431.63 198.75,-424.85 204.21,-418.68 208.63,-410.98 212.07,-403.53"/>
<polygon fill="black" stroke="black" points="215.27,-404.95 215.85,-394.37 208.8,-402.28 215.27,-404.95"/>
<text xml:space="preserve" text-anchor="middle" x="292.03" y="-411.55" font-family="Times,serif" font-size="14.00">not (p[&#39;language&#39;] == &#39;en&#39;)</text>
</g>
<!-- router_text_analysis_flow_line_16_seq_2 -->
<g id="node7" class="node">
<title>router_text_analysis_flow_line_16_seq_2</title>
<polygon fill="wheat" stroke="black" points="353.5,-284.6 90,-284.6 90,-230.6 353.5,-230.6 353.5,-284.6"/>
<text xml:space="preserve" text-anchor="middle" x="221.75" y="-267.3" font-family="Helvetica,sans-Serif" font-size="14.00">router_text_analysis_flow_line_16_seq_2</text>
<text xml:space="preserve" text-anchor="middle" x="221.75" y="-236.3" font-family="Helvetica,sans-Serif" font-size="14.00">p[&#39;sentiment&#39;] = &#39;neutral&#39;</text>
</g>
<!-- router_text_analysis_flow_line_13_if_3&#45;&gt;router_text_analysis_flow_line_16_seq_2 -->
<g id="edge5" class="edge">
<title>router_text_analysis_flow_line_13_if_3&#45;&gt;router_text_analysis_flow_line_16_seq_2</title>
<path fill="none" stroke="black" d="M221.75,-356.13C221.75,-340.27 221.75,-316.34 221.75,-296.15"/>
<polygon fill="black" stroke="black" points="225.25,-296.3 221.75,-286.3 218.25,-296.3 225.25,-296.3"/>
<text xml:space="preserve" text-anchor="middle" x="304.25" y="-314.43" font-family="Times,serif" font-size="14.00">not (p[&#39;language&#39;] == &#39;es&#39;)</text>
</g>
<!-- spanish_sentiment -->
<g id="node9" class="node">
<title>spanish_sentiment</title>
<polygon fill="lightblue" stroke="black" points="500.38,-275.6 371.12,-275.6 371.12,-239.6 500.38,-239.6 500.38,-275.6"/>
<text xml:space="preserve" text-anchor="middle" x="435.75" y="-251.8" font-family="Helvetica,sans-Serif" font-size="14.00">spanish_sentiment</text>
</g>
<!-- router_text_analysis_flow_line_13_if_3&#45;&gt;spanish_sentiment -->
<g id="edge4" class="edge">
<title>router_text_analysis_flow_line_13_if_3&#45;&gt;spanish_sentiment</title>
<path fill="none" stroke="black" d="M340.42,-356.18C362.44,-351.29 381.44,-345.41 390.75,-338.6 408.24,-325.81 419.85,-304.03 426.89,-286.42"/>
<polygon fill="black" stroke="black" points="430.09,-287.87 430.26,-277.28 423.52,-285.45 430.09,-287.87"/>
<text xml:space="preserve" text-anchor="middle" x="482.74" y="-314.43" font-family="Times,serif" font-size="14.00">p[&#39;language&#39;] == &#39;es&#39;</text>
</g>
<!-- router_text_analysis_flow_line_16_seq_2&#45;&gt;extract_entities -->
<g id="edge11" class="edge">
<title>router_text_analysis_flow_line_16_seq_2&#45;&gt;extract_entities</title>
<path fill="none" stroke="black" d="M221.75,-230.41C221.75,-222.32 221.75,-213.38 221.75,-205.15"/>
<polygon fill="black" stroke="black" points="225.25,-205.29 221.75,-195.29 218.25,-205.29 225.25,-205.29"/>
</g>
<!-- __end__ -->
<g id="node11" class="node">
<title>__end__</title>
<ellipse fill="black" stroke="black" cx="221.75" cy="-14.8" rx="10.8" ry="10.8"/>
<ellipse fill="none" stroke="black" cx="221.75" cy="-14.8" rx="14.8" ry="14.8"/>
</g>
<!-- router_text_analysis_flow_line_20_seq_1&#45;&gt;__end__ -->
<g id="edge12" class="edge">
<title>router_text_analysis_flow_line_20_seq_1&#45;&gt;__end__</title>
<path fill="none" stroke="black" d="M221.75,-66.17C221.75,-58.1 221.75,-49.25 221.75,-41.25"/>
<polygon fill="black" stroke="black" points="225.25,-41.48 221.75,-31.48 218.25,-41.48 225.25,-41.48"/>
</g>
<!-- spanish_sentiment&#45;&gt;extract_entities -->
<g id="edge10" class="edge">
<title>spanish_sentiment&#45;&gt;extract_entities</title>
<path fill="none" stroke="black" d="M389.05,-239.14C356.62,-227.02 313.21,-210.79 278.74,-197.9"/>
<polygon fill="black" stroke="black" points="280.36,-194.77 269.77,-194.55 277.91,-201.33 280.36,-194.77"/>
</g>
<!-- tokenize&#45;&gt;router_text_analysis_flow_line_11_if_4 -->
<g id="edge3" class="edge">
<title>tokenize&#45;&gt;router_text_analysis_flow_line_11_if_4</title>
<path fill="none" stroke="black" d="M142.75,-515.66C142.75,-508.08 142.75,-498.95 142.75,-490.39"/>
<polygon fill="black" stroke="black" points="146.25,-490.39 142.75,-480.39 139.25,-490.39 146.25,-490.39"/>
</g>
</g>
</svg>
