<?xml version="1.0" encoding="UTF-8" standalone="no"?>
<!DOCTYPE svg PUBLIC "-//W3C//DTD SVG 1.1//EN"
 "http://www.w3.org/Graphics/SVG/1.1/DTD/svg11.dtd">
<!-- Generated by graphviz
 -->
<!-- Title: while_true_simple Pages: 1 -->
<svg width="516pt" height="280pt"
 viewBox="0.00 0.00 515.75 280.00" xmlns="http://www.w3.org/2000/svg" xmlns:xlink="http://www.w3.org/1999/xlink">
<g id="graph0" class="graph" transform="scale(1 1) rotate(0) translate(4 276)">
<title>while_true_simple</title>
<polygon fill="white" stroke="none" points="-4,4 -4,-276 511.75,-276 511.75,4 -4,4"/>
<!-- end_while_true_flow -->
<g id="node1" class="node">
<title>end_while_true_flow</title>
<polygon fill="palegreen" stroke="black" points="148.75,-36 0,-36 0,0 148.75,0 148.75,-36"/>
<text text-anchor="middle" x="74.38" y="-13.7" font-family="Helvetica,sans-Serif" font-size="14.00">end_while_true_flow</text>
</g>
<!-- handler_finalize -->
<g id="node2" class="node">
<title>handler_finalize</title>
<polygon fill="lightblue" stroke="black" points="133,-109 15.75,-109 15.75,-73 133,-73 133,-109"/>
<text text-anchor="middle" x="74.38" y="-86.7" font-family="Helvetica,sans-Serif" font-size="14.00">handler_finalize</text>
</g>
<!-- handler_finalize&#45;&gt;end_while_true_flow -->
<g id="edge7" class="edge">
<title>handler_finalize&#45;&gt;end_while_true_flow</title>
<path fill="none" stroke="black" d="M74.38,-72.81C74.38,-65.23 74.38,-56.1 74.38,-47.54"/>
<polygon fill="black" stroke="black" points="77.88,-47.54 74.38,-37.54 70.88,-47.54 77.88,-47.54"/>
</g>
<!-- handler_init -->
<g id="node3" class="node">
<title>handler_init</title>
<polygon fill="lightblue" stroke="black" points="437.62,-199 345.12,-199 345.12,-163 437.62,-163 437.62,-199"/>
<text text-anchor="middle" x="391.38" y="-176.7" font-family="Helvetica,sans-Serif" font-size="14.00">handler_init</text>
</g>
<!-- router_while_true_flow_line_14_while_1 -->
<g id="node5" class="node">
<title>router_while_true_flow_line_14_while_1</title>
<polygon fill="wheat" stroke="black" points="507.75,-109 239,-109 239,-73 507.75,-73 507.75,-109"/>
<text text-anchor="middle" x="373.38" y="-86.7" font-family="Helvetica,sans-Serif" font-size="14.00">router_while_true_flow_line_14_while_1</text>
</g>
<!-- handler_init&#45;&gt;router_while_true_flow_line_14_while_1 -->
<g id="edge2" class="edge">
<title>handler_init&#45;&gt;router_while_true_flow_line_14_while_1</title>
<path fill="none" stroke="black" d="M387.82,-162.61C385.35,-150.56 382.02,-134.24 379.17,-120.33"/>
<polygon fill="black" stroke="black" points="382.66,-119.93 377.23,-110.83 375.8,-121.33 382.66,-119.93"/>
</g>
<!-- handler_process -->
<g id="node4" class="node">
<title>handler_process</title>
<polygon fill="lightblue" stroke="black" points="326.88,-36 205.88,-36 205.88,0 326.88,0 326.88,-36"/>
<text text-anchor="middle" x="266.38" y="-13.7" font-family="Helvetica,sans-Serif" font-size="14.00">handler_process</text>
</g>
<!-- router_while_true_flow_line_16_if_2 -->
<g id="node6" class="node">
<title>router_while_true_flow_line_16_if_2</title>
<polygon fill="wheat" stroke="black" points="327.38,-199 83.38,-199 83.38,-163 327.38,-163 327.38,-199"/>
<text text-anchor="middle" x="205.38" y="-176.7" font-family="Helvetica,sans-Serif" font-size="14.00">router_while_true_flow_line_16_if_2</text>
</g>
<!-- handler_process&#45;&gt;router_while_true_flow_line_16_if_2 -->
<g id="edge5" class="edge">
<title>handler_process&#45;&gt;router_while_true_flow_line_16_if_2</title>
<path fill="none" stroke="black" d="M252.67,-36.07C245.11,-46.27 236.11,-59.77 230.38,-73 219.37,-98.4 212.81,-129.39 209.19,-151.47"/>
<polygon fill="black" stroke="black" points="205.75,-150.81 207.7,-161.23 212.67,-151.87 205.75,-150.81"/>
</g>
<!-- router_while_true_flow_line_14_while_1&#45;&gt;handler_process -->
<g id="edge4" class="edge">
<title>router_while_true_flow_line_14_while_1&#45;&gt;handler_process</title>
<path fill="none" stroke="black" d="M347.2,-72.63C333.6,-63.61 316.78,-52.44 302.01,-42.64"/>
<polygon fill="black" stroke="black" points="304.18,-39.88 293.91,-37.27 300.31,-45.72 304.18,-39.88"/>
</g>
<!-- router_while_true_flow_line_16_if_2&#45;&gt;handler_finalize -->
<g id="edge3" class="edge">
<title>router_while_true_flow_line_16_if_2&#45;&gt;handler_finalize</title>
<path fill="none" stroke="black" d="M109.87,-162.55C93.75,-157.73 80.48,-151.88 75.12,-145 69.76,-138.11 68.27,-129.05 68.52,-120.37"/>
<polygon fill="black" stroke="black" points="71.99,-120.83 69.57,-110.52 65.03,-120.09 71.99,-120.83"/>
<text text-anchor="middle" x="136.25" y="-131.7" font-family="Times,serif" font-size="14.00">p.get(&#39;done&#39;, False)</text>
</g>
<!-- router_while_true_flow_line_16_if_2&#45;&gt;router_while_true_flow_line_14_while_1 -->
<g id="edge6" class="edge">
<title>router_while_true_flow_line_16_if_2&#45;&gt;router_while_true_flow_line_14_while_1</title>
<path fill="none" stroke="black" d="M238.57,-162.61C264.8,-148.87 301.62,-129.59 330.15,-114.64"/>
<polygon fill="black" stroke="black" points="331.68,-117.79 338.91,-110.05 328.43,-111.59 331.68,-117.79"/>
</g>
<!-- start_while_true_flow -->
<g id="node7" class="node">
<title>start_while_true_flow</title>
<polygon fill="palegreen" stroke="black" points="468.75,-272 314,-272 314,-236 468.75,-236 468.75,-272"/>
<text text-anchor="middle" x="391.38" y="-249.7" font-family="Helvetica,sans-Serif" font-size="14.00">start_while_true_flow</text>
</g>
<!-- start_while_true_flow&#45;&gt;handler_init -->
<g id="edge1" class="edge">
<title>start_while_true_flow&#45;&gt;handler_init</title>
<path fill="none" stroke="black" d="M391.38,-235.81C391.38,-228.23 391.38,-219.1 391.38,-210.54"/>
<polygon fill="black" stroke="black" points="394.88,-210.54 391.38,-200.54 387.88,-210.54 394.88,-210.54"/>
</g>
</g>
</svg>
