<?xml version="1.0" encoding="UTF-8" standalone="no"?>
<!DOCTYPE svg PUBLIC "-//W3C//DTD SVG 1.1//EN"
 "http://www.w3.org/Graphics/SVG/1.1/DTD/svg11.dtd">
<!-- Generated by graphviz version 13.0.1 (20250615.1724)
 -->
<!-- Title: flow Pages: 1 -->
<svg width="812pt" height="1723pt"
 viewBox="0.00 0.00 812.00 1723.00" xmlns="http://www.w3.org/2000/svg" xmlns:xlink="http://www.w3.org/1999/xlink">
<g id="graph0" class="graph" transform="scale(1 1) rotate(0) translate(4 1718.75)">
<title>flow</title>
<polygon fill="white" stroke="none" points="-4,4 -4,-1718.75 807.8,-1718.75 807.8,4 -4,4"/>
<!-- start_complex_flow -->
<g id="node1" class="node">
<title>start_complex_flow</title>
<path fill="lightgreen" stroke="black" d="M642.8,-1714.75C642.8,-1714.75 474,-1714.75 474,-1714.75 468,-1714.75 462,-1708.75 462,-1702.75 462,-1702.75 462,-1671.2 462,-1671.2 462,-1665.2 468,-1659.2 474,-1659.2 474,-1659.2 642.8,-1659.2 642.8,-1659.2 648.8,-1659.2 654.8,-1665.2 654.8,-1671.2 654.8,-1671.2 654.8,-1702.75 654.8,-1702.75 654.8,-1708.75 648.8,-1714.75 642.8,-1714.75"/>
<polygon fill="white" stroke="none" points="476.4,-1673.6 476.4,-1700.35 640.4,-1700.35 640.4,-1673.6 476.4,-1673.6"/>
<polygon fill="none" stroke="black" points="476.4,-1673.6 476.4,-1700.35 640.4,-1700.35 640.4,-1673.6 476.4,-1673.6"/>
<text xml:space="preserve" text-anchor="start" x="483.4" y="-1684.85" font-family="Courier,monospace" font-style="italic" font-size="10.00">p = start_complex_flow(p)</text>
</g>
<!-- handler_preprocess -->
<g id="node13" class="node">
<title>handler_preprocess</title>
<path fill="lightblue" stroke="black" d="M642.8,-1622.2C642.8,-1622.2 474,-1622.2 474,-1622.2 468,-1622.2 462,-1616.2 462,-1610.2 462,-1610.2 462,-1578.65 462,-1578.65 462,-1572.65 468,-1566.65 474,-1566.65 474,-1566.65 642.8,-1566.65 642.8,-1566.65 648.8,-1566.65 654.8,-1572.65 654.8,-1578.65 654.8,-1578.65 654.8,-1610.2 654.8,-1610.2 654.8,-1616.2 648.8,-1622.2 642.8,-1622.2"/>
<polygon fill="white" stroke="none" points="476.4,-1581.05 476.4,-1607.8 640.4,-1607.8 640.4,-1581.05 476.4,-1581.05"/>
<polygon fill="none" stroke="black" points="476.4,-1581.05 476.4,-1607.8 640.4,-1607.8 640.4,-1581.05 476.4,-1581.05"/>
<text xml:space="preserve" text-anchor="start" x="483.4" y="-1592.3" font-family="Courier,monospace" font-style="italic" font-size="10.00">p = handler_preprocess(p)</text>
</g>
<!-- start_complex_flow&#45;&gt;handler_preprocess -->
<g id="edge21" class="edge">
<title>start_complex_flow&#45;&gt;handler_preprocess</title>
<path fill="none" stroke="black" d="M558.4,-1658.81C558.4,-1651.02 558.4,-1642.37 558.4,-1634.03"/>
<polygon fill="black" stroke="black" points="561.9,-1634.09 558.4,-1624.09 554.9,-1634.09 561.9,-1634.09"/>
</g>
<!-- router_complex_flow_line_26_if -->
<g id="node2" class="node">
<title>router_complex_flow_line_26_if</title>
<path fill="wheat" stroke="black" d="M370.8,-313.9C370.8,-313.9 130,-313.9 130,-313.9 124,-313.9 118,-307.9 118,-301.9 118,-301.9 118,-208.85 118,-208.85 118,-202.85 124,-196.85 130,-196.85 130,-196.85 370.8,-196.85 370.8,-196.85 376.8,-196.85 382.8,-202.85 382.8,-208.85 382.8,-208.85 382.8,-301.9 382.8,-301.9 382.8,-307.9 376.8,-313.9 370.8,-313.9"/>
<polygon fill="white" stroke="none" points="132.4,-272.75 132.4,-299.5 368.4,-299.5 368.4,-272.75 132.4,-272.75"/>
<polygon fill="none" stroke="black" points="132.4,-272.75 132.4,-299.5 368.4,-299.5 368.4,-272.75 132.4,-272.75"/>
<text xml:space="preserve" text-anchor="start" x="139.4" y="-284" font-family="Courier,monospace" font-style="italic" font-size="10.00">p = router_complex_flow_line_26_if(p)</text>
<polygon fill="lightyellow" stroke="none" points="132.4,-246 132.4,-272.75 368.4,-272.75 368.4,-246 132.4,-246"/>
<polygon fill="none" stroke="black" points="132.4,-246 132.4,-272.75 368.4,-272.75 368.4,-246 132.4,-246"/>
<text xml:space="preserve" text-anchor="start" x="169.4" y="-257.25" font-family="Courier,monospace" font-weight="bold" font-size="10.00">if</text>
<text xml:space="preserve" text-anchor="start" x="181.4" y="-257.25" font-family="Courier,monospace" font-size="10.00"> p[&#39;quality_score&#39;] &gt;= 50</text>
<polygon fill="none" stroke="black" points="132.4,-211.25 132.4,-246 368.4,-246 368.4,-211.25 132.4,-211.25"/>
<polygon fill="#698b69" stroke="none" points="139.4,-218.25 139.4,-239 250.4,-239 250.4,-218.25 139.4,-218.25"/>
<text xml:space="preserve" text-anchor="start" x="182.9" y="-226.5" font-family="Courier,monospace" font-weight="bold" font-size="10.00" fill="white">TRUE</text>
<polygon fill="#8b3a3a" stroke="none" points="250.4,-218.25 250.4,-239 361.4,-239 361.4,-218.25 250.4,-218.25"/>
<text xml:space="preserve" text-anchor="start" x="293.9" y="-226.5" font-family="Courier,monospace" font-weight="bold" font-size="10.00" fill="white">pass</text>
</g>
<!-- router_complex_flow_line_19_while_0 -->
<g id="node4" class="node">
<title>router_complex_flow_line_19_while_0</title>
<path fill="wheat" stroke="black" d="M415.8,-896.9C415.8,-896.9 85,-896.9 85,-896.9 79,-896.9 73,-890.9 73,-884.9 73,-884.9 73,-791.85 73,-791.85 73,-785.85 79,-779.85 85,-779.85 85,-779.85 415.8,-779.85 415.8,-779.85 421.8,-779.85 427.8,-785.85 427.8,-791.85 427.8,-791.85 427.8,-884.9 427.8,-884.9 427.8,-890.9 421.8,-896.9 415.8,-896.9"/>
<polygon fill="white" stroke="none" points="87.4,-855.75 87.4,-882.5 413.4,-882.5 413.4,-855.75 87.4,-855.75"/>
<polygon fill="none" stroke="black" points="87.4,-855.75 87.4,-882.5 413.4,-882.5 413.4,-855.75 87.4,-855.75"/>
<text xml:space="preserve" text-anchor="start" x="124.4" y="-867" font-family="Courier,monospace" font-style="italic" font-size="10.00">p = router_complex_flow_line_19_while_0(p)</text>
<polygon fill="lightyellow" stroke="none" points="87.4,-829 87.4,-855.75 413.4,-855.75 413.4,-829 87.4,-829"/>
<polygon fill="none" stroke="black" points="87.4,-829 87.4,-855.75 413.4,-855.75 413.4,-829 87.4,-829"/>
<text xml:space="preserve" text-anchor="start" x="94.4" y="-840.25" font-family="Courier,monospace" font-weight="bold" font-size="10.00">if</text>
<text xml:space="preserve" text-anchor="start" x="106.4" y="-840.25" font-family="Courier,monospace" font-size="10.00"> p.get(&#39;batch_count&#39;, 0) &lt; p.get(&#39;max_batches&#39;, 3)</text>
<polygon fill="none" stroke="black" points="87.4,-794.25 87.4,-829 413.4,-829 413.4,-794.25 87.4,-794.25"/>
<polygon fill="#698b69" stroke="none" points="94.4,-801.25 94.4,-822 247.4,-822 247.4,-801.25 94.4,-801.25"/>
<text xml:space="preserve" text-anchor="start" x="158.9" y="-809.5" font-family="Courier,monospace" font-weight="bold" font-size="10.00" fill="white">TRUE</text>
<polygon fill="#8b3a3a" stroke="none" points="247.4,-801.25 247.4,-822 406.4,-822 406.4,-801.25 247.4,-801.25"/>
<text xml:space="preserve" text-anchor="start" x="311.9" y="-809.5" font-family="Courier,monospace" font-weight="bold" font-size="10.00" fill="white">FALSE</text>
</g>
<!-- router_complex_flow_line_26_if&#45;&gt;router_complex_flow_line_19_while_0 -->
<g id="edge18" class="edge">
<title>router_complex_flow_line_26_if&#45;&gt;router_complex_flow_line_19_while_0</title>
<path fill="none" stroke="#8b3a3a" d="M352.15,-314.26C368,-327.99 382.17,-344.13 391.4,-362.65 414.61,-409.21 401.11,-428.59 391.4,-479.7 371.36,-585.17 320.84,-699.3 286.06,-769.57"/>
<polygon fill="#8b3a3a" stroke="#8b3a3a" points="283.05,-767.75 281.72,-778.26 289.32,-770.88 283.05,-767.75"/>
<text xml:space="preserve" text-anchor="middle" x="382.7" y="-553.1" font-family="Courier,monospace" font-size="10.00">F</text>
</g>
<!-- handler_finalize -->
<g id="node12" class="node">
<title>handler_finalize</title>
<path fill="lightblue" stroke="black" d="M564.8,-148.1C564.8,-148.1 408,-148.1 408,-148.1 402,-148.1 396,-142.1 396,-136.1 396,-136.1 396,-104.55 396,-104.55 396,-98.55 402,-92.55 408,-92.55 408,-92.55 564.8,-92.55 564.8,-92.55 570.8,-92.55 576.8,-98.55 576.8,-104.55 576.8,-104.55 576.8,-136.1 576.8,-136.1 576.8,-142.1 570.8,-148.1 564.8,-148.1"/>
<polygon fill="white" stroke="none" points="410.4,-106.95 410.4,-133.7 562.4,-133.7 562.4,-106.95 410.4,-106.95"/>
<polygon fill="none" stroke="black" points="410.4,-106.95 410.4,-133.7 562.4,-133.7 562.4,-106.95 410.4,-106.95"/>
<text xml:space="preserve" text-anchor="start" x="417.4" y="-118.2" font-family="Courier,monospace" font-style="italic" font-size="10.00">p = handler_finalize(p)</text>
</g>
<!-- router_complex_flow_line_26_if&#45;&gt;handler_finalize -->
<g id="edge17" class="edge">
<title>router_complex_flow_line_26_if&#45;&gt;handler_finalize</title>
<path fill="none" stroke="#698b69" d="M338.64,-196.39C355.59,-185.92 373.37,-175.39 390.4,-166.1 398.26,-161.81 406.61,-157.53 414.97,-153.42"/>
<polygon fill="#698b69" stroke="#698b69" points="416.3,-156.66 423.78,-149.15 413.25,-150.36 416.3,-156.66"/>
<text xml:space="preserve" text-anchor="middle" x="393.4" y="-169.35" font-family="Courier,monospace" font-size="10.00">T</text>
</g>
<!-- router_complex_flow_line_23_if -->
<g id="node3" class="node">
<title>router_complex_flow_line_23_if</title>
<path fill="wheat" stroke="black" d="M370.8,-479.7C370.8,-479.7 130,-479.7 130,-479.7 124,-479.7 118,-473.7 118,-467.7 118,-467.7 118,-374.65 118,-374.65 118,-368.65 124,-362.65 130,-362.65 130,-362.65 370.8,-362.65 370.8,-362.65 376.8,-362.65 382.8,-368.65 382.8,-374.65 382.8,-374.65 382.8,-467.7 382.8,-467.7 382.8,-473.7 376.8,-479.7 370.8,-479.7"/>
<polygon fill="white" stroke="none" points="132.4,-438.55 132.4,-465.3 368.4,-465.3 368.4,-438.55 132.4,-438.55"/>
<polygon fill="none" stroke="black" points="132.4,-438.55 132.4,-465.3 368.4,-465.3 368.4,-438.55 132.4,-438.55"/>
<text xml:space="preserve" text-anchor="start" x="139.4" y="-449.8" font-family="Courier,monospace" font-style="italic" font-size="10.00">p = router_complex_flow_line_23_if(p)</text>
<polygon fill="lightyellow" stroke="none" points="132.4,-411.8 132.4,-438.55 368.4,-438.55 368.4,-411.8 132.4,-411.8"/>
<polygon fill="none" stroke="black" points="132.4,-411.8 132.4,-438.55 368.4,-438.55 368.4,-411.8 132.4,-411.8"/>
<text xml:space="preserve" text-anchor="start" x="172.4" y="-423.05" font-family="Courier,monospace" font-weight="bold" font-size="10.00">if</text>
<text xml:space="preserve" text-anchor="start" x="184.4" y="-423.05" font-family="Courier,monospace" font-size="10.00"> p[&#39;quality_score&#39;] &lt; 20</text>
<polygon fill="none" stroke="black" points="132.4,-377.05 132.4,-411.8 368.4,-411.8 368.4,-377.05 132.4,-377.05"/>
<polygon fill="#698b69" stroke="none" points="139.4,-384.05 139.4,-404.8 247.4,-404.8 247.4,-384.05 139.4,-384.05"/>
<text xml:space="preserve" text-anchor="start" x="181.4" y="-392.3" font-family="Courier,monospace" font-weight="bold" font-size="10.00" fill="white">TRUE</text>
<polygon fill="#8b3a3a" stroke="none" points="247.4,-384.05 247.4,-404.8 361.4,-404.8 361.4,-384.05 247.4,-384.05"/>
<text xml:space="preserve" text-anchor="start" x="289.4" y="-392.3" font-family="Courier,monospace" font-weight="bold" font-size="10.00" fill="white">FALSE</text>
</g>
<!-- router_complex_flow_line_23_if&#45;&gt;router_complex_flow_line_26_if -->
<g id="edge16" class="edge">
<title>router_complex_flow_line_23_if&#45;&gt;router_complex_flow_line_26_if</title>
<path fill="none" stroke="#8b3a3a" d="M250.4,-362.43C250.4,-350.44 250.4,-337.69 250.4,-325.35"/>
<polygon fill="#8b3a3a" stroke="#8b3a3a" points="253.9,-325.67 250.4,-315.67 246.9,-325.67 253.9,-325.67"/>
<text xml:space="preserve" text-anchor="middle" x="253.4" y="-335.15" font-family="Courier,monospace" font-size="10.00">F</text>
</g>
<!-- router_complex_flow_line_23_if&#45;&gt;router_complex_flow_line_19_while_0 -->
<g id="edge15" class="edge">
<title>router_complex_flow_line_23_if&#45;&gt;router_complex_flow_line_19_while_0</title>
<path fill="none" stroke="#698b69" d="M250.4,-480.08C250.4,-555.72 250.4,-687.97 250.4,-768.62"/>
<polygon fill="#698b69" stroke="#698b69" points="246.9,-768.13 250.4,-778.13 253.9,-768.13 246.9,-768.13"/>
<text xml:space="preserve" text-anchor="middle" x="253.4" y="-605.25" font-family="Courier,monospace" font-size="10.00">T</text>
</g>
<!-- router_complex_flow_line_19_while_0&#45;&gt;handler_finalize -->
<g id="edge13" class="edge">
<title>router_complex_flow_line_19_while_0&#45;&gt;handler_finalize</title>
<path fill="none" stroke="#8b3a3a" d="M342.08,-779.69C377.83,-749.65 410.4,-709.2 410.4,-661.52 410.4,-661.52 410.4,-661.52 410.4,-254.38 410.4,-217.89 432.22,-182.31 452.47,-157.13"/>
<polygon fill="#8b3a3a" stroke="#8b3a3a" points="455.12,-159.43 458.85,-149.51 449.75,-154.93 455.12,-159.43"/>
<text xml:space="preserve" text-anchor="middle" x="413.4" y="-500.95" font-family="Courier,monospace" font-size="10.00">F</text>
</g>
<!-- handler_transform_batch -->
<g id="node15" class="node">
<title>handler_transform_batch</title>
<path fill="lightblue" stroke="black" d="M210.8,-688.3C210.8,-688.3 12,-688.3 12,-688.3 6,-688.3 0,-682.3 0,-676.3 0,-676.3 0,-644.75 0,-644.75 0,-638.75 6,-632.75 12,-632.75 12,-632.75 210.8,-632.75 210.8,-632.75 216.8,-632.75 222.8,-638.75 222.8,-644.75 222.8,-644.75 222.8,-676.3 222.8,-676.3 222.8,-682.3 216.8,-688.3 210.8,-688.3"/>
<polygon fill="white" stroke="none" points="14.4,-647.15 14.4,-673.9 208.4,-673.9 208.4,-647.15 14.4,-647.15"/>
<polygon fill="none" stroke="black" points="14.4,-647.15 14.4,-673.9 208.4,-673.9 208.4,-647.15 14.4,-647.15"/>
<text xml:space="preserve" text-anchor="start" x="21.4" y="-658.4" font-family="Courier,monospace" font-style="italic" font-size="10.00">p = handler_transform_batch(p)</text>
</g>
<!-- router_complex_flow_line_19_while_0&#45;&gt;handler_transform_batch -->
<g id="edge14" class="edge">
<title>router_complex_flow_line_19_while_0&#45;&gt;handler_transform_batch</title>
<path fill="none" stroke="#698b69" d="M204.89,-779.8C183.5,-752.74 158.65,-721.31 139.96,-697.65"/>
<polygon fill="#698b69" stroke="#698b69" points="142.74,-695.53 133.8,-689.86 137.25,-699.87 142.74,-695.53"/>
<text xml:space="preserve" text-anchor="middle" x="192.22" y="-730.95" font-family="Courier,monospace" font-size="10.00">T</text>
</g>
<!-- router_complex_flow_line_29_if -->
<g id="node5" class="node">
<title>router_complex_flow_line_29_if</title>
<path fill="wheat" stroke="black" d="M678.8,-1062.7C678.8,-1062.7 438,-1062.7 438,-1062.7 432,-1062.7 426,-1056.7 426,-1050.7 426,-1050.7 426,-957.65 426,-957.65 426,-951.65 432,-945.65 438,-945.65 438,-945.65 678.8,-945.65 678.8,-945.65 684.8,-945.65 690.8,-951.65 690.8,-957.65 690.8,-957.65 690.8,-1050.7 690.8,-1050.7 690.8,-1056.7 684.8,-1062.7 678.8,-1062.7"/>
<polygon fill="white" stroke="none" points="440.4,-1021.55 440.4,-1048.3 676.4,-1048.3 676.4,-1021.55 440.4,-1021.55"/>
<polygon fill="none" stroke="black" points="440.4,-1021.55 440.4,-1048.3 676.4,-1048.3 676.4,-1021.55 440.4,-1021.55"/>
<text xml:space="preserve" text-anchor="start" x="447.4" y="-1032.8" font-family="Courier,monospace" font-style="italic" font-size="10.00">p = router_complex_flow_line_29_if(p)</text>
<polygon fill="lightyellow" stroke="none" points="440.4,-994.8 440.4,-1021.55 676.4,-1021.55 676.4,-994.8 440.4,-994.8"/>
<polygon fill="none" stroke="black" points="440.4,-994.8 440.4,-1021.55 676.4,-1021.55 676.4,-994.8 440.4,-994.8"/>
<text xml:space="preserve" text-anchor="start" x="480.4" y="-1006.05" font-family="Courier,monospace" font-weight="bold" font-size="10.00">if</text>
<text xml:space="preserve" text-anchor="start" x="492.4" y="-1006.05" font-family="Courier,monospace" font-size="10.00"> p.get(&#39;requires_retry&#39;)</text>
<polygon fill="none" stroke="black" points="440.4,-960.05 440.4,-994.8 676.4,-994.8 676.4,-960.05 440.4,-960.05"/>
<polygon fill="#698b69" stroke="none" points="447.4,-967.05 447.4,-987.8 555.4,-987.8 555.4,-967.05 447.4,-967.05"/>
<text xml:space="preserve" text-anchor="start" x="489.4" y="-975.3" font-family="Courier,monospace" font-weight="bold" font-size="10.00" fill="white">TRUE</text>
<polygon fill="#8b3a3a" stroke="none" points="555.4,-967.05 555.4,-987.8 669.4,-987.8 669.4,-967.05 555.4,-967.05"/>
<text xml:space="preserve" text-anchor="start" x="597.4" y="-975.3" font-family="Courier,monospace" font-weight="bold" font-size="10.00" fill="white">FALSE</text>
</g>
<!-- router_complex_flow_line_29_if&#45;&gt;handler_finalize -->
<g id="edge19" class="edge">
<title>router_complex_flow_line_29_if&#45;&gt;handler_finalize</title>
<path fill="none" stroke="#8b3a3a" d="M519.03,-945.17C502.22,-914.97 486.4,-876.65 486.4,-839.38 486.4,-839.38 486.4,-839.38 486.4,-254.38 486.4,-222.63 486.4,-186.61 486.4,-160.07"/>
<polygon fill="#8b3a3a" stroke="#8b3a3a" points="489.9,-160.1 486.4,-150.1 482.9,-160.1 489.9,-160.1"/>
<text xml:space="preserve" text-anchor="middle" x="489.4" y="-553.1" font-family="Courier,monospace" font-size="10.00">F</text>
</g>
<!-- handler_retry_handler -->
<g id="node14" class="node">
<title>handler_retry_handler</title>
<path fill="lightblue" stroke="black" d="M699.8,-761.85C699.8,-761.85 513,-761.85 513,-761.85 507,-761.85 501,-755.85 501,-749.85 501,-749.85 501,-718.3 501,-718.3 501,-712.3 507,-706.3 513,-706.3 513,-706.3 699.8,-706.3 699.8,-706.3 705.8,-706.3 711.8,-712.3 711.8,-718.3 711.8,-718.3 711.8,-749.85 711.8,-749.85 711.8,-755.85 705.8,-761.85 699.8,-761.85"/>
<polygon fill="white" stroke="none" points="515.4,-720.7 515.4,-747.45 697.4,-747.45 697.4,-720.7 515.4,-720.7"/>
<polygon fill="none" stroke="black" points="515.4,-720.7 515.4,-747.45 697.4,-747.45 697.4,-720.7 515.4,-720.7"/>
<text xml:space="preserve" text-anchor="start" x="522.4" y="-731.95" font-family="Courier,monospace" font-style="italic" font-size="10.00">p = handler_retry_handler(p)</text>
</g>
<!-- router_complex_flow_line_29_if&#45;&gt;handler_retry_handler -->
<g id="edge20" class="edge">
<title>router_complex_flow_line_29_if&#45;&gt;handler_retry_handler</title>
<path fill="none" stroke="#698b69" d="M568.76,-945.33C578.07,-893.33 591.48,-818.42 599.53,-773.47"/>
<polygon fill="#698b69" stroke="#698b69" points="602.96,-774.12 601.28,-763.66 596.07,-772.89 602.96,-774.12"/>
<text xml:space="preserve" text-anchor="middle" x="576.35" y="-918.15" font-family="Courier,monospace" font-size="10.00">T</text>
</g>
<!-- router_complex_flow_line_16_if -->
<g id="node6" class="node">
<title>router_complex_flow_line_16_if</title>
<path fill="wheat" stroke="black" d="M678.8,-1271.3C678.8,-1271.3 438,-1271.3 438,-1271.3 432,-1271.3 426,-1265.3 426,-1259.3 426,-1259.3 426,-1166.25 426,-1166.25 426,-1160.25 432,-1154.25 438,-1154.25 438,-1154.25 678.8,-1154.25 678.8,-1154.25 684.8,-1154.25 690.8,-1160.25 690.8,-1166.25 690.8,-1166.25 690.8,-1259.3 690.8,-1259.3 690.8,-1265.3 684.8,-1271.3 678.8,-1271.3"/>
<polygon fill="white" stroke="none" points="440.4,-1230.15 440.4,-1256.9 676.4,-1256.9 676.4,-1230.15 440.4,-1230.15"/>
<polygon fill="none" stroke="black" points="440.4,-1230.15 440.4,-1256.9 676.4,-1256.9 676.4,-1230.15 440.4,-1230.15"/>
<text xml:space="preserve" text-anchor="start" x="447.4" y="-1241.4" font-family="Courier,monospace" font-style="italic" font-size="10.00">p = router_complex_flow_line_16_if(p)</text>
<polygon fill="lightyellow" stroke="none" points="440.4,-1203.4 440.4,-1230.15 676.4,-1230.15 676.4,-1203.4 440.4,-1203.4"/>
<polygon fill="none" stroke="black" points="440.4,-1203.4 440.4,-1230.15 676.4,-1230.15 676.4,-1203.4 440.4,-1203.4"/>
<text xml:space="preserve" text-anchor="start" x="474.4" y="-1214.65" font-family="Courier,monospace" font-weight="bold" font-size="10.00">if</text>
<text xml:space="preserve" text-anchor="start" x="486.4" y="-1214.65" font-family="Courier,monospace" font-size="10.00"> p.get(&#39;needs_enrichment&#39;)</text>
<polygon fill="none" stroke="black" points="440.4,-1168.65 440.4,-1203.4 676.4,-1203.4 676.4,-1168.65 440.4,-1168.65"/>
<polygon fill="#698b69" stroke="none" points="447.4,-1175.65 447.4,-1196.4 555.4,-1196.4 555.4,-1175.65 447.4,-1175.65"/>
<text xml:space="preserve" text-anchor="start" x="489.4" y="-1183.9" font-family="Courier,monospace" font-weight="bold" font-size="10.00" fill="white">TRUE</text>
<polygon fill="#8b3a3a" stroke="none" points="555.4,-1175.65 555.4,-1196.4 669.4,-1196.4 669.4,-1175.65 555.4,-1175.65"/>
<text xml:space="preserve" text-anchor="start" x="597.4" y="-1183.9" font-family="Courier,monospace" font-weight="bold" font-size="10.00" fill="white">FALSE</text>
</g>
<!-- router_complex_flow_line_16_if&#45;&gt;router_complex_flow_line_29_if -->
<g id="edge12" class="edge">
<title>router_complex_flow_line_16_if&#45;&gt;router_complex_flow_line_29_if</title>
<path fill="none" stroke="#8b3a3a" d="M558.4,-1153.95C558.4,-1129.2 558.4,-1100.1 558.4,-1074.23"/>
<polygon fill="#8b3a3a" stroke="#8b3a3a" points="561.9,-1074.5 558.4,-1064.5 554.9,-1074.5 561.9,-1074.5"/>
<text xml:space="preserve" text-anchor="middle" x="561.4" y="-1105.35" font-family="Courier,monospace" font-size="10.00">F</text>
</g>
<!-- handler_enrich_data -->
<g id="node10" class="node">
<title>handler_enrich_data</title>
<path fill="lightblue" stroke="black" d="M386.8,-1031.95C386.8,-1031.95 212,-1031.95 212,-1031.95 206,-1031.95 200,-1025.95 200,-1019.95 200,-1019.95 200,-988.4 200,-988.4 200,-982.4 206,-976.4 212,-976.4 212,-976.4 386.8,-976.4 386.8,-976.4 392.8,-976.4 398.8,-982.4 398.8,-988.4 398.8,-988.4 398.8,-1019.95 398.8,-1019.95 398.8,-1025.95 392.8,-1031.95 386.8,-1031.95"/>
<polygon fill="white" stroke="none" points="214.4,-990.8 214.4,-1017.55 384.4,-1017.55 384.4,-990.8 214.4,-990.8"/>
<polygon fill="none" stroke="black" points="214.4,-990.8 214.4,-1017.55 384.4,-1017.55 384.4,-990.8 214.4,-990.8"/>
<text xml:space="preserve" text-anchor="start" x="221.4" y="-1002.05" font-family="Courier,monospace" font-style="italic" font-size="10.00">p = handler_enrich_data(p)</text>
</g>
<!-- router_complex_flow_line_16_if&#45;&gt;handler_enrich_data -->
<g id="edge11" class="edge">
<title>router_complex_flow_line_16_if&#45;&gt;handler_enrich_data</title>
<path fill="none" stroke="#698b69" d="M485.91,-1153.95C439.77,-1117.15 381.58,-1070.73 342.57,-1039.61"/>
<polygon fill="#698b69" stroke="#698b69" points="344.76,-1036.88 334.76,-1033.38 340.39,-1042.35 344.76,-1036.88"/>
<text xml:space="preserve" text-anchor="middle" x="462.71" y="-1105.35" font-family="Courier,monospace" font-size="10.00">T</text>
</g>
<!-- router_complex_flow_line_12_if -->
<g id="node7" class="node">
<title>router_complex_flow_line_12_if</title>
<path fill="wheat" stroke="black" d="M678.8,-1437.1C678.8,-1437.1 438,-1437.1 438,-1437.1 432,-1437.1 426,-1431.1 426,-1425.1 426,-1425.1 426,-1332.05 426,-1332.05 426,-1326.05 432,-1320.05 438,-1320.05 438,-1320.05 678.8,-1320.05 678.8,-1320.05 684.8,-1320.05 690.8,-1326.05 690.8,-1332.05 690.8,-1332.05 690.8,-1425.1 690.8,-1425.1 690.8,-1431.1 684.8,-1437.1 678.8,-1437.1"/>
<polygon fill="white" stroke="none" points="440.4,-1395.95 440.4,-1422.7 676.4,-1422.7 676.4,-1395.95 440.4,-1395.95"/>
<polygon fill="none" stroke="black" points="440.4,-1395.95 440.4,-1422.7 676.4,-1422.7 676.4,-1395.95 440.4,-1395.95"/>
<text xml:space="preserve" text-anchor="start" x="447.4" y="-1407.2" font-family="Courier,monospace" font-style="italic" font-size="10.00">p = router_complex_flow_line_12_if(p)</text>
<polygon fill="lightyellow" stroke="none" points="440.4,-1369.2 440.4,-1395.95 676.4,-1395.95 676.4,-1369.2 440.4,-1369.2"/>
<polygon fill="none" stroke="black" points="440.4,-1369.2 440.4,-1395.95 676.4,-1395.95 676.4,-1369.2 440.4,-1369.2"/>
<text xml:space="preserve" text-anchor="start" x="507.4" y="-1380.45" font-family="Courier,monospace" font-weight="bold" font-size="10.00">if</text>
<text xml:space="preserve" text-anchor="start" x="519.4" y="-1380.45" font-family="Courier,monospace" font-size="10.00"> not p[&#39;valid&#39;]</text>
<polygon fill="none" stroke="black" points="440.4,-1334.45 440.4,-1369.2 676.4,-1369.2 676.4,-1334.45 440.4,-1334.45"/>
<polygon fill="#698b69" stroke="none" points="447.4,-1341.45 447.4,-1362.2 555.4,-1362.2 555.4,-1341.45 447.4,-1341.45"/>
<text xml:space="preserve" text-anchor="start" x="489.4" y="-1349.7" font-family="Courier,monospace" font-weight="bold" font-size="10.00" fill="white">TRUE</text>
<polygon fill="#8b3a3a" stroke="none" points="555.4,-1341.45 555.4,-1362.2 669.4,-1362.2 669.4,-1341.45 555.4,-1341.45"/>
<text xml:space="preserve" text-anchor="start" x="597.4" y="-1349.7" font-family="Courier,monospace" font-weight="bold" font-size="10.00" fill="white">FALSE</text>
</g>
<!-- router_complex_flow_line_12_if&#45;&gt;router_complex_flow_line_16_if -->
<g id="edge10" class="edge">
<title>router_complex_flow_line_12_if&#45;&gt;router_complex_flow_line_16_if</title>
<path fill="none" stroke="#8b3a3a" d="M558.4,-1319.83C558.4,-1307.84 558.4,-1295.09 558.4,-1282.75"/>
<polygon fill="#8b3a3a" stroke="#8b3a3a" points="561.9,-1283.07 558.4,-1273.07 554.9,-1283.07 561.9,-1283.07"/>
<text xml:space="preserve" text-anchor="middle" x="561.4" y="-1292.55" font-family="Courier,monospace" font-size="10.00">F</text>
</g>
<!-- handler_error -->
<g id="node11" class="node">
<title>handler_error</title>
<path fill="lightblue" stroke="black" d="M791.8,-1136.25C791.8,-1136.25 653,-1136.25 653,-1136.25 647,-1136.25 641,-1130.25 641,-1124.25 641,-1124.25 641,-1092.7 641,-1092.7 641,-1086.7 647,-1080.7 653,-1080.7 653,-1080.7 791.8,-1080.7 791.8,-1080.7 797.8,-1080.7 803.8,-1086.7 803.8,-1092.7 803.8,-1092.7 803.8,-1124.25 803.8,-1124.25 803.8,-1130.25 797.8,-1136.25 791.8,-1136.25"/>
<polygon fill="white" stroke="none" points="655.4,-1095.1 655.4,-1121.85 789.4,-1121.85 789.4,-1095.1 655.4,-1095.1"/>
<polygon fill="none" stroke="black" points="655.4,-1095.1 655.4,-1121.85 789.4,-1121.85 789.4,-1095.1 655.4,-1095.1"/>
<text xml:space="preserve" text-anchor="start" x="662.4" y="-1106.35" font-family="Courier,monospace" font-style="italic" font-size="10.00">p = handler_error(p)</text>
</g>
<!-- router_complex_flow_line_12_if&#45;&gt;handler_error -->
<g id="edge9" class="edge">
<title>router_complex_flow_line_12_if&#45;&gt;handler_error</title>
<path fill="none" stroke="#698b69" d="M656.63,-1319.76C673.23,-1305.87 688.57,-1289.65 699.4,-1271.3 721.68,-1233.53 725.45,-1182.4 724.93,-1147.79"/>
<polygon fill="#698b69" stroke="#698b69" points="728.44,-1148.14 724.65,-1138.25 721.44,-1148.34 728.44,-1148.14"/>
<text xml:space="preserve" text-anchor="middle" x="688.76" y="-1292.55" font-family="Courier,monospace" font-size="10.00">T</text>
</g>
<!-- end_complex_flow -->
<g id="node8" class="node">
<title>end_complex_flow</title>
<path fill="lightgreen" stroke="black" d="M684.8,-55.55C684.8,-55.55 528,-55.55 528,-55.55 522,-55.55 516,-49.55 516,-43.55 516,-43.55 516,-12 516,-12 516,-6 522,0 528,0 528,0 684.8,0 684.8,0 690.8,0 696.8,-6 696.8,-12 696.8,-12 696.8,-43.55 696.8,-43.55 696.8,-49.55 690.8,-55.55 684.8,-55.55"/>
<polygon fill="white" stroke="none" points="530.4,-14.4 530.4,-41.15 682.4,-41.15 682.4,-14.4 530.4,-14.4"/>
<polygon fill="none" stroke="black" points="530.4,-14.4 530.4,-41.15 682.4,-41.15 682.4,-14.4 530.4,-14.4"/>
<text xml:space="preserve" text-anchor="start" x="537.4" y="-25.65" font-family="Courier,monospace" font-style="italic" font-size="10.00">p = end_complex_flow(p)</text>
</g>
<!-- handler_check_quality -->
<g id="node9" class="node">
<title>handler_check_quality</title>
<path fill="lightblue" stroke="black" d="M208.8,-584C208.8,-584 22,-584 22,-584 16,-584 10,-578 10,-572 10,-572 10,-540.45 10,-540.45 10,-534.45 16,-528.45 22,-528.45 22,-528.45 208.8,-528.45 208.8,-528.45 214.8,-528.45 220.8,-534.45 220.8,-540.45 220.8,-540.45 220.8,-572 220.8,-572 220.8,-578 214.8,-584 208.8,-584"/>
<polygon fill="white" stroke="none" points="24.4,-542.85 24.4,-569.6 206.4,-569.6 206.4,-542.85 24.4,-542.85"/>
<polygon fill="none" stroke="black" points="24.4,-542.85 24.4,-569.6 206.4,-569.6 206.4,-542.85 24.4,-542.85"/>
<text xml:space="preserve" text-anchor="start" x="31.4" y="-554.1" font-family="Courier,monospace" font-style="italic" font-size="10.00">p = handler_check_quality(p)</text>
</g>
<!-- handler_check_quality&#45;&gt;router_complex_flow_line_23_if -->
<g id="edge1" class="edge">
<title>handler_check_quality&#45;&gt;router_complex_flow_line_23_if</title>
<path fill="none" stroke="black" d="M143.05,-527.98C154.89,-516.3 169.29,-502.12 183.64,-487.97"/>
<polygon fill="black" stroke="black" points="185.85,-490.71 190.52,-481.19 180.94,-485.72 185.85,-490.71"/>
</g>
<!-- handler_enrich_data&#45;&gt;router_complex_flow_line_19_while_0 -->
<g id="edge2" class="edge">
<title>handler_enrich_data&#45;&gt;router_complex_flow_line_19_while_0</title>
<path fill="none" stroke="black" d="M291.31,-976.13C285.77,-957.61 278.16,-932.17 271,-908.25"/>
<polygon fill="black" stroke="black" points="274.41,-907.42 268.19,-898.84 267.7,-909.43 274.41,-907.42"/>
</g>
<!-- handler_error&#45;&gt;end_complex_flow -->
<g id="edge3" class="edge">
<title>handler_error&#45;&gt;end_complex_flow</title>
<path fill="none" stroke="black" d="M723.35,-1080.49C724.53,-1044.43 726.4,-978.56 726.4,-922.27 726.4,-922.27 726.4,-922.27 726.4,-119.33 726.4,-94.66 710.04,-75.86 689.4,-61.96"/>
<polygon fill="black" stroke="black" points="691.29,-59.01 680.95,-56.71 687.6,-64.96 691.29,-59.01"/>
</g>
<!-- handler_finalize&#45;&gt;end_complex_flow -->
<g id="edge4" class="edge">
<title>handler_finalize&#45;&gt;end_complex_flow</title>
<path fill="none" stroke="black" d="M522.4,-92.16C534.63,-82.93 548.44,-72.51 561.28,-62.82"/>
<polygon fill="black" stroke="black" points="563.34,-65.65 569.21,-56.84 559.12,-60.07 563.34,-65.65"/>
</g>
<!-- handler_validate -->
<g id="node16" class="node">
<title>handler_validate</title>
<path fill="lightblue" stroke="black" d="M636.8,-1529.65C636.8,-1529.65 480,-1529.65 480,-1529.65 474,-1529.65 468,-1523.65 468,-1517.65 468,-1517.65 468,-1486.1 468,-1486.1 468,-1480.1 474,-1474.1 480,-1474.1 480,-1474.1 636.8,-1474.1 636.8,-1474.1 642.8,-1474.1 648.8,-1480.1 648.8,-1486.1 648.8,-1486.1 648.8,-1517.65 648.8,-1517.65 648.8,-1523.65 642.8,-1529.65 636.8,-1529.65"/>
<polygon fill="white" stroke="none" points="482.4,-1488.5 482.4,-1515.25 634.4,-1515.25 634.4,-1488.5 482.4,-1488.5"/>
<polygon fill="none" stroke="black" points="482.4,-1488.5 482.4,-1515.25 634.4,-1515.25 634.4,-1488.5 482.4,-1488.5"/>
<text xml:space="preserve" text-anchor="start" x="489.4" y="-1499.75" font-family="Courier,monospace" font-style="italic" font-size="10.00">p = handler_validate(p)</text>
</g>
<!-- handler_preprocess&#45;&gt;handler_validate -->
<g id="edge5" class="edge">
<title>handler_preprocess&#45;&gt;handler_validate</title>
<path fill="none" stroke="black" d="M558.4,-1566.26C558.4,-1558.47 558.4,-1549.82 558.4,-1541.48"/>
<polygon fill="black" stroke="black" points="561.9,-1541.54 558.4,-1531.54 554.9,-1541.54 561.9,-1541.54"/>
</g>
<!-- handler_retry_handler&#45;&gt;handler_finalize -->
<g id="edge6" class="edge">
<title>handler_retry_handler&#45;&gt;handler_finalize</title>
<path fill="none" stroke="black" d="M591.83,-705.93C580.04,-681.41 565.4,-643.99 565.4,-609.38 565.4,-609.38 565.4,-609.38 565.4,-254.38 565.4,-217.37 542.52,-181.66 521.39,-156.57"/>
<polygon fill="black" stroke="black" points="524.25,-154.52 515.03,-149.3 518.98,-159.13 524.25,-154.52"/>
</g>
<!-- handler_transform_batch&#45;&gt;handler_check_quality -->
<g id="edge7" class="edge">
<title>handler_transform_batch&#45;&gt;handler_check_quality</title>
<path fill="none" stroke="black" d="M112.46,-632.38C112.9,-621.16 113.42,-607.96 113.89,-595.77"/>
<polygon fill="black" stroke="black" points="117.38,-596.14 114.27,-586.01 110.39,-595.87 117.38,-596.14"/>
</g>
<!-- handler_validate&#45;&gt;router_complex_flow_line_12_if -->
<g id="edge8" class="edge">
<title>handler_validate&#45;&gt;router_complex_flow_line_12_if</title>
<path fill="none" stroke="black" d="M558.4,-1473.65C558.4,-1466.09 558.4,-1457.52 558.4,-1448.7"/>
<polygon fill="black" stroke="black" points="561.9,-1448.98 558.4,-1438.98 554.9,-1448.98 561.9,-1448.98"/>
</g>
</g>
</svg>
