<?xml version="1.0" encoding="UTF-8" standalone="no"?>
<!DOCTYPE svg PUBLIC "-//W3C//DTD SVG 1.1//EN"
 "http://www.w3.org/Graphics/SVG/1.1/DTD/svg11.dtd">
<!-- Generated by graphviz
 -->
<!-- Title: order_pipeline Pages: 1 -->
<svg width="456pt" height="134pt"
 viewBox="0.00 0.00 455.75 134.00" xmlns="http://www.w3.org/2000/svg" xmlns:xlink="http://www.w3.org/1999/xlink">
<g id="graph0" class="graph" transform="scale(1 1) rotate(0) translate(4 130)">
<title>order_pipeline</title>
<polygon fill="white" stroke="none" points="-4,4 -4,-130 451.75,-130 451.75,4 -4,4"/>
<!-- end_order_pipeline -->
<g id="node1" class="node">
<title>end_order_pipeline</title>
<polygon fill="palegreen" stroke="black" points="139,-126 0,-126 0,-90 139,-90 139,-126"/>
<text text-anchor="middle" x="69.5" y="-103.7" font-family="Helvetica,sans-Serif" font-size="14.00">end_order_pipeline</text>
</g>
<!-- router_order_pipeline_line_32_if_2 -->
<g id="node2" class="node">
<title>router_order_pipeline_line_32_if_2</title>
<polygon fill="wheat" stroke="black" points="392,-126 157,-126 157,-90 392,-90 392,-126"/>
<text text-anchor="middle" x="274.5" y="-103.7" font-family="Helvetica,sans-Serif" font-size="14.00">router_order_pipeline_line_32_if_2</text>
</g>
<!-- router_order_pipeline_line_33_seq_1 -->
<g id="node3" class="node">
<title>router_order_pipeline_line_33_seq_1</title>
<polygon fill="wheat" stroke="black" points="398.38,-36 150.62,-36 150.62,0 398.38,0 398.38,-36"/>
<text text-anchor="middle" x="274.5" y="-13.7" font-family="Helvetica,sans-Serif" font-size="14.00">router_order_pipeline_line_33_seq_1</text>
</g>
<!-- router_order_pipeline_line_32_if_2&#45;&gt;router_order_pipeline_line_33_seq_1 -->
<g id="edge1" class="edge">
<title>router_order_pipeline_line_32_if_2&#45;&gt;router_order_pipeline_line_33_seq_1</title>
<path fill="none" stroke="black" d="M274.5,-89.61C274.5,-77.68 274.5,-61.57 274.5,-47.74"/>
<polygon fill="black" stroke="black" points="278,-47.86 274.5,-37.86 271,-47.86 278,-47.86"/>
<text text-anchor="middle" x="361.12" y="-58.7" font-family="Times,serif" font-size="14.00">p.get(&#39;fraud_score&#39;, 0) &gt; 0.8</text>
</g>
</g>
</svg>
